<?xml version="1.0" encoding="UTF-8"?>
<svg id="Layer_2" data-name="Layer 2" xmlns="http://www.w3.org/2000/svg" viewBox="0 0 2894.21 634.25">
  <defs>
    <style>
      .cls-1 {
        fill: #242424;
      }

      .cls-1, .cls-2, .cls-3, .cls-4, .cls-5, .cls-6, .cls-7 {
        stroke-width: 0px;
      }

      .cls-2 {
        fill: #8fcef0;
      }

      .cls-3 {
        fill: #fefefe;
      }

      .cls-4 {
        fill: #232424;
      }

      .cls-5 {
        fill: #e5dec6;
      }

      .cls-6 {
        fill: #fcf4da;
      }

      .cls-7 {
        fill: #fff;
      }
    </style>
  </defs>
  <g id="Layer_1-2" data-name="Layer 1">
    <g>
      <g>
        <path class="cls-1" d="M0,369.39c3.41-5.52,8.97-6.74,14.76-7.03,7.92-.41,15.85-.79,23.8-.39,3.37.17,6.7.23,10,1.08,5.45,1.42,6.64.97,7.9-4.38,2.42-10.31,5.85-20.32,7.95-30.77,4.44-22.11,9.42-44.17,18.49-65,1.09-2.5,2.27-4.95,3.45-7.4,3.09-6.39,7.35-7.87,14.14-4.97,3.97,2.63,6.47,6.6,6.55,11.05.07,3.64-1.29,7.65-3.07,10.93-4.58,8.45-5.9,17.86-8,26.9-2.33,10.08-2.57,20.64-7.35,30.14-.2.39-.39.91-.3,1.31,1.59,7.28-3.57,13.23-3.95,20.15-.24,4.43-2.82,8.45-3.35,12.68-1.2,9.66-1.45,19.45-2.04,29.19-.16,2.62-.31,5.21-.65,7.83-.9,6.77-1.02,14.11,1.31,20.11,2.83,7.27,3.89,14.96,7.14,22.16,4.71,10.44,11.23,18.86,19.64,26.47,9.74,8.81,17.55,6.05,25.67.16,8.71-6.32,16.89-13.36,24.39-21.21,6.5-6.8,14.4-12.24,20.91-18.94,7.07-7.28,14.7-13.8,23.07-19.15,13.83-8.85,27.45-18.05,43.49-23.19,12.26-3.93,24.62-4.44,36.99-3.94,11.04.45,21.77,3.63,32.38,7.29,12.7,4.38,24.74,10.19,35.45,17.81,15.6,11.1,31.97,20.99,47.51,32.15,11.42,8.2,23.47,15.48,33.98,24.94,2.35,2.11,4.68,4.76,7.96,5.42,16.74,3.37,33.38,6.99,50.75,5.82,17-1.15,32.9-4.94,47.12-14.69,2.14-1.47,5.02-2.06,6.75-3.85,9.13-9.44,20.77-15.18,31.63-22.07,1-.64,2.61-1.05,2.32-2.5-.27-1.32-2.01-1.06-3.05-1.58-.76-.38-1.82-.15-2.75-.17-6.99-.15-13.61-2.17-20.1-4.46-3.65-1.29-6.21-3.9-6.41-8.17-.2-4.35,2.37-6.85,5.87-8.5,1.89-.9,4.09-1.71,6.13-1.66,13.65.33,27.16,2.07,40.4,5.33,3.74.92,6.1.26,8.63-2.2,3.86-3.74,7.84-7.36,11.85-10.93,4.6-4.1,9.96-7.16,13.64-12.52,4.66-6.79,10.64-12.57,17.68-17.1,1.28-.83,2.41-2.09,2.52-3.75.28-4.24.91-8.39.71-12.75-.22-5-1.93-10.28.49-15.27.47-.96.75-2.04.33-3.14-2.46-6.46-1.82-13.27-2.28-19.96-.12-1.72,1.38-3.11.59-4.94-3.82-8.85-1.95-18.49-3.68-27.69-1.53-8.13-2.03-16.59-4.48-24.42-3.22-10.31,1.07-14.23,7.51-17.42,10.14-.63,15.53,3.1,16.93,13.09.96,6.86,3.26,13.35,4.35,20.1,1.59,9.89,3.91,19.66,4.34,29.78.22,5.3,2.76,10.37,2.18,15.97-1.29,12.58,2.01,25.1.93,37.68-.74,8.63-1.04,17.23-.84,25.9.12,5.25-3.23,9.76-4.36,14.82-2.69,11.97-6.02,23.76-9.63,35.48-.13.43-.14.94-.37,1.31-5.44,8.44-6.58,18.49-10.34,27.56-4.05,9.8-7.45,20.03-13.04,28.98-10.43,16.69-21.63,32.88-38.9,43.69-5.59,3.5-10.53,8.08-15.77,12.15-5.63,4.38-12.19,7.53-18.15,11.52-8.16,5.46-16.74,10.17-25.28,14.96-4.66,2.61-9.38,5.16-14.49,6.91-4.8,1.65-9.45,3.66-14.11,5.72-10.97,4.86-22.55,8.07-33.95,11.8-12.31,4.02-24.94,6.6-37.33,10.16-10.98,3.15-22.35,4.16-33.54,6.16-11.34,2.03-22.71,4.2-34.17,5.19-7.6.65-15.15,3.06-22.95,1.44-2.35-.49-4.86-.3-7.25.75-1.34.59-2.98.89-4.44.76-10.8-.91-21.67-.79-32.43-2.25-6.81-.93-13.63-1.33-20.43-2.92-8.32-1.94-17.07-1.95-25.55-3.34-6.98-1.15-13.77-3.48-20.75-4.59-12.23-1.95-23.8-6.2-35.61-9.61-10.43-3.01-19.64-8.57-29.2-13.55-9.75-5.08-17.15-12.97-25.98-19.07-4.32-2.99-7.23-7.47-10.89-11.15-9.22-9.27-17.54-19.43-26.21-29.24-.72-.81-1.26-1.8-2.07-2.5-8.61-7.56-14.5-17.7-23.27-25.02-7.01-5.85-11.53-13.74-17.79-20.17-1.53-1.57-2.56-3.84-3.29-5.96-3.23-9.38-9.24-17.64-9.81-28.18-.26-4.94-1.22-9.98-1.22-15.01,0-3.02-1.31-3.95-3.97-3.47-10.04,1.84-20.17,3.06-30.17,5.17-5.52,1.17-11.1.86-15.24-4.05-3.84-4.55-2.91-10.36,2.29-13.2,7.06-3.85,14.83-5.24,22.68-6.52,6.56-1.07,13.08-2.3,19.72-2.64,1.61-.08,2.01-.72,2.06-2.26.18-5.62.48-11.25.83-16.86.1-1.66-.11-2.39-2.1-2.6-5.82-.61-11.71-.41-17.48-1.03-7.4-.79-14.87-.54-22.23-2.15-5.2-1.14-9.16-3.54-12.11-7.83v-4.65ZM160.64,550.21c9.42,9.91,21.44,15.91,33.55,21.47,8.74,4.02,18.32,6.17,27.21,9.89,11.86,4.96,24.27,8.27,36.78,9.96,17.09,2.32,34.12,5.15,51.27,7.04,12.57,1.39,25.2,3.02,37.8,1.78,13.69-1.35,27.45-.62,41.13-2.88,14.42-2.39,29.07-3.17,43.47-6.1,10.41-2.12,20.58-4.95,30.63-8.23,11.04-3.61,21.94-7.65,32.84-11.65,5.62-2.07,11.04-4.73,16.7-6.67,14.35-4.94,27.62-12.24,40.15-20.45,10.73-7.03,21.67-13.94,31.8-21.88,6.63-5.19,13.42-10.35,18.63-17.16,4.75-6.2,9.36-12.43,13.57-19.06,6.2-9.75,12.93-19.06,16.14-30.39,1.46-5.14,3.98-9.92,5.02-15.26.77-3.94-.35-5.96-4.24-6.45-1.52-.19-3.14-.55-4.59-.25-7.84,1.61-15.63,3.45-23.46,5.13-5.82,1.25-10.38,4.41-14.5,8.62-5.97,6.1-14.04,9.62-20.07,15.59-3.68,3.64-7.42,6.93-12.1,9.1-2.12.19-3.66,1.54-5.35,2.62-5.58,3.55-10.14,8.72-16.8,10.53-5.71,1.56-10.74,4.38-15.77,7.53-8.63,5.42-17.47,10.58-26.59,15.11-10.71,5.31-22,9.47-32.72,14.77-12.67,6.26-25.7,10.34-39.97,10.15-7.65-.1-14.72-2.51-21.97-4.42-4.02-1.06-8.54-1.38-11.53-4.25-5.19-4.97-11.35-7.51-18.14-7.82-7.61-.35-14.79,1.41-20.16,7.8-3.77,4.49-4.76,9.79-5.74,15.24-.71,3.95-2.66,8.1-5.8,9.79-6.97,3.77-17.4-3.03-18.2-11.13-.81-8.14-3.89-14.12-12.27-17.51-13.99-5.66-27.65-1.07-33.82,12.5-1.17,2.58-2.7,5.22-4.82,6.68-4.11,2.83-8.48,5.7-14.14,3.56-6.06-2.29-7.15-8.04-8.96-12.92-2.96-7.96-6.6-14.35-15.73-16.66-9.78-2.47-18.63-1.74-27.06,3.96-4.2,2.84-7.11,6.75-10.02,10.74-3.59,4.93-8.09,8.29-14.51,6.94-4.57-.96-7.9-4.52-9.03-8.57-2.22-7.99-8.09-11.03-15-12.09-5.92-.91-11.89.63-16.59,4.9-1.58,1.44-3.17,3.45-1.2,5.64,7.71,8.59,14.86,17.73,24.17,24.75ZM430.11,486.68c-2.58-4.12-6.92-7-10.87-10.41-11.71-10.13-24.67-18.54-37.45-27.07-7.41-4.94-15.01-9.76-22.45-14.71-16.96-11.28-33.21-23.63-53.13-29.65-8.98-2.71-17.69-6.33-27.25-6.39-3.07-.02-6.16.59-9.22.43-11.26-.59-21.97,2-31.78,7.03-20.83,10.68-39.55,24.42-56.59,40.59-12.09,11.47-23.39,23.87-37.37,33.24-.99.66-2.33,1.45-2.41,3.29,3.95-.08,6.51,3.01,10.08,4.08,4.02,1.21,7.6.14,11.36-.26,9.12-.96,16.36-4.19,19.44-13.99,1.19-3.79,4.78-6.44,8.67-7.92,7.78-2.96,14.26.8,17.13,8.78,1.4,3.89,1.09,8.84,5.14,11.46,3.69,2.4,7.39,5.19,11.5,6.45,10.07,3.08,20.7,2.62,24.99-11.64,1.83-6.09,7.66-10.75,12.89-10.94,7.66-.28,12.4,3.48,14.8,11.75,1.61,5.55,4.44,9.43,10.38,11.75,7.46,2.92,13.63.59,20.22-1.96,3.56-1.38,5.87-3.36,7.08-7.14,1.44-4.47,3.03-8.88,6.05-12.77,5.9-7.58,17.41-8.37,23.26-.69,6.73,8.83,15.33,14,25.9,17.14,6.06,1.8,12.02,1.89,18.09,2.5,14.02,1.4,28.17,5.93,41.55-2.96Z"/>
        <path class="cls-4" d="M104.13,229.04c-8.6,1.99-16.39-3.53-17.57-12.79-2.01-15.82-2.45-31.75-1.78-47.64.58-13.74,2.39-27.43,3.77-41.13.18-1.79,1.04-3.51,1.65-5.25,1.63-4.69,4.04-9.16,3.59-14.41-.72-8.48,3.57-15.6,6.09-23.26,1.59-4.83,3.71-9.61,4.3-14.79.32-2.81,2.52-4.84,3.67-7.32,6.16-13.28,14.02-25.77,27.01-32.72,11.41-6.1,22.86-13.02,37.13-12.28,7.96.41,15.62,2.86,23.7,2.4,3.23-.19,6.78,1.76,9.88,3.33,6.83,3.47,14.53,4.49,20.97,9.54,5.23,4.09,12.09,6.2,17.03,11.11,1.31,1.3,3.36,2.27,3.94,3.82,1.75,4.65,5.52,7.63,9.05,10.28,4.77,3.57,7.32,8.55,10.6,13.07,9.72,13.38,19.87,26.52,28.55,40.56,4.7,7.6,8.69,15.86,12.51,24.05,2.14,4.58,5.8,7.81,8.57,11.81,1.7,2.45,1.4,6.85,4.84,7.27,2.82.34,5.88-1.3,8.84-2.03,7.02-1.73,14.16-2.54,21.39-2.81,2.92-.11,5.89-.35,8.71-1.03,8.63-2.06,17.3-3.53,26.08-1.54,5.96,1.35,12.23-.73,18.1,2.27,1.96,1,2.55-2.2,3.06-3.75,2.32-7.06,4.32-14.23,6.62-21.29,2.52-7.73,4.7-15.6,6.95-23.37,3.36-11.61,8.69-22.42,12.12-34,3.47-11.72,9.91-22.28,16.97-32.51,5.31-7.71,11.76-14,18.44-20.2,6.26-5.81,14.38-8.18,22.32-10.53,4.14-1.22,8.27-2.44,12.34-3.89h3.72c3.33,2.48,7.52,2.58,11.16,2.65,8.67.16,16.12,4.32,24.21,6.04,14.87,3.15,24.71,13.82,35.11,23.07,6.8,6.05,13.31,13.1,17.88,21.66,3.86,7.23,8.26,14.21,11.86,21.61,1.46,3.01,4.61,4.54,6.15,7.43,4.36,8.19,8.43,16.42,10.27,25.69.81,4.1,2.96,8.11,4.89,11.77,3.92,7.46,5.28,15.59,7.23,23.45,1.47,5.94,4.63,11.23,5.42,17.33,1.08,8.4,5.26,16.01,5.26,24.88,0,6.16,1.52,12.6,3.65,18.64,2.3,6.51-.91,10.75-5.78,14.35-6.31,1.01-11.58-.44-15.02-6.31-3.92-6.68-5.38-14.33-6.41-21.64-.88-6.18-2.48-12.34-4.12-18.02-3.63-12.49-7.52-25-12.04-37.29-4.46-12.11-8.52-24.36-13.21-36.41-3.1-7.98-5.97-16.22-10.76-23.07-6.51-9.3-12.25-19.29-21.36-26.79-6.52-5.36-13.03-10.73-19.78-15.81-4.18-3.15-8.52-5.95-13.95-6.13-1.61-.05-2.92-.9-4.4-1.14-5.4-.88-9.94-4.91-16.26-2.96-3.93,1.21-7.47,3.82-11.67,3.87-5.27.06-9.62,3.41-12.72,6.19-5.88,5.27-10.29,12.35-14.38,19.31-4.23,7.2-6.54,15.42-10.64,22.57-4.58,7.99-5.52,16.98-8.51,25.32-3.56,9.9-7.44,19.9-9.72,30.36-1.74,8.02-4.54,15.85-7.32,23.6-1.97,5.49-.92,11.37-2.96,16.83-1.75,4.69-2.91,9.59-4.44,14.37-2.26,7.08-10.95,11.11-17.94,8.4-7.39-2.86-9.6-8.82-6.34-16.82.87-2.12,1.58-4.32,2.18-6.53.4-1.49.1-2.81-1.87-2.95-4.46-.32-8.95-1.12-13.38-.86-11.86.69-23.47,3.48-35.44,3.89-11.1.38-21.56,4.99-32.36,7.51-5.67,1.32-10.69,4.38-16.01,6.51-12.76,5.09-25.07,10.79-36.46,18.54-5.38,3.66-15,1.94-18.11-2.65-3.21-4.73-1.88-12.28,3.27-15.94,4.08-2.9,8.37-5.72,12.96-7.63,9.76-4.06,18.66-10.05,29.85-12.45-3.74-4.18-5.14-8.73-7.33-12.88-4.65-8.79-10.65-16.78-15.12-25.69-4.15-8.26-10.05-15.41-15.19-23.04-5.2-7.73-10.46-15.38-16.01-22.87-3.94-5.32-9.11-9.3-13.45-14.1-3.74-4.14-8.06-7.72-12.45-10.62-9.69-6.4-21-9.64-32.3-11.99-7.04-1.47-14.65-1.68-21.53.59-10.4,3.43-18.32,11.04-25.12,19.2-6.96,8.33-11.28,18.55-13.63,29.11-3.01,13.46-6.04,26.94-8.14,40.62-2.42,15.77-3.39,31.58-3.45,47.47-.04,10.97-.36,21.94.75,32.92.85,8.5-2.25,13.66-8.18,15.91Z"/>
        <path class="cls-2" d="M104.13,229.04c5.93-2.24,9.04-7.41,8.18-15.91-1.1-10.98-.79-21.95-.75-32.92.06-15.89,1.03-31.71,3.45-47.47,2.1-13.68,5.13-27.16,8.14-40.62,2.36-10.56,6.68-20.78,13.63-29.11,6.81-8.16,14.73-15.77,25.12-19.2,6.88-2.27,14.49-2.06,21.53-.59,11.3,2.36,22.61,5.6,32.3,11.99,4.39,2.9,8.7,6.48,12.45,10.62,4.34,4.8,9.51,8.79,13.45,14.1,5.55,7.49,10.8,15.14,16.01,22.87,5.14,7.63,11.04,14.78,15.19,23.04,4.48,8.91,10.47,16.91,15.12,25.69,2.19,4.14,3.59,8.7,7.33,12.88-11.18,2.4-20.09,8.39-29.85,12.45-4.59,1.91-8.88,4.74-12.96,7.63-5.15,3.65-6.47,11.21-3.27,15.94,3.12,4.6,12.73,6.32,18.11,2.65,11.39-7.75,23.7-13.45,36.46-18.54,5.33-2.13,10.35-5.18,16.01-6.51,10.8-2.52,21.26-7.13,32.36-7.51,11.97-.41,23.58-3.19,35.44-3.89,4.43-.26,8.92.55,13.38.86,1.96.14,2.27,1.46,1.87,2.95-.6,2.21-1.32,4.41-2.18,6.53-3.26,8-1.05,13.95,6.34,16.82,6.99,2.71,15.68-1.32,17.94-8.4,1.53-4.78,2.69-9.68,4.44-14.37,2.03-5.46.99-11.34,2.96-16.83,2.78-7.75,5.58-15.58,7.32-23.6,2.27-10.46,6.16-20.47,9.72-30.36,3-8.34,3.93-17.33,8.51-25.32,4.1-7.15,6.42-15.36,10.64-22.57,4.09-6.97,8.5-14.04,14.38-19.31,3.09-2.77,7.45-6.13,12.72-6.19,4.2-.05,7.74-2.66,11.67-3.87,6.32-1.95,10.86,2.08,16.26,2.96,1.48.24,2.79,1.09,4.4,1.14,5.43.18,9.77,2.99,13.95,6.13,6.75,5.08,13.25,10.44,19.78,15.81,9.11,7.5,14.85,17.48,21.36,26.79,4.8,6.86,7.66,15.1,10.76,23.07,4.68,12.05,8.74,24.31,13.21,36.41,4.53,12.28,8.42,24.8,12.04,37.29,1.65,5.68,3.25,11.84,4.12,18.02,1.03,7.31,2.49,14.96,6.41,21.64,3.45,5.88,8.71,7.32,15.02,6.31.39,8.24,2.95,15.95,5.76,23.6-6.44,3.2-10.73,7.12-7.51,17.42,2.45,7.83,2.95,16.3,4.48,24.42,1.73,9.2-.14,18.83,3.68,27.69.79,1.83-.71,3.21-.59,4.94.46,6.69-.17,13.5,2.28,19.96.42,1.1.13,2.17-.33,3.14-2.43,5-.72,10.28-.49,15.27.2,4.36-.43,8.51-.71,12.75-.11,1.66-1.23,2.93-2.52,3.75-7.04,4.53-13.02,10.31-17.68,17.1-3.68,5.37-9.04,8.42-13.64,12.52-4.01,3.57-8,7.19-11.85,10.93-2.53,2.46-4.89,3.12-8.63,2.2-13.24-3.26-26.75-5.01-40.4-5.33-2.04-.05-4.23.76-6.13,1.66-3.49,1.65-6.07,4.15-5.87,8.5.2,4.27,2.76,6.88,6.41,8.17,6.5,2.29,13.11,4.31,20.1,4.46.93.02,1.99-.2,2.75.17,1.04.52,2.78.27,3.05,1.58.29,1.45-1.32,1.86-2.32,2.5-10.86,6.9-22.49,12.64-31.63,22.07-1.73,1.79-4.62,2.38-6.75,3.85-14.21,9.76-30.11,13.55-47.12,14.69-17.37,1.17-34.01-2.44-50.75-5.82-3.28-.66-5.61-3.31-7.96-5.42-10.51-9.46-22.56-16.75-33.98-24.94-15.54-11.16-31.91-21.06-47.51-32.15-10.71-7.62-22.75-13.43-35.45-17.81-10.61-3.66-21.34-6.84-32.38-7.29-12.37-.5-24.73.01-36.99,3.94-16.04,5.14-29.66,14.34-43.49,23.19-8.37,5.35-16,11.88-23.07,19.15-6.51,6.71-14.41,12.14-20.91,18.94-7.5,7.85-15.68,14.89-24.39,21.21-8.12,5.89-15.93,8.66-25.67-.16-8.41-7.61-14.93-16.04-19.64-26.47-3.25-7.19-4.31-14.89-7.14-22.16-2.33-6-2.21-13.35-1.31-20.11.35-2.62.49-5.21.65-7.83.59-9.74.84-19.52,2.04-29.19.53-4.24,3.11-8.26,3.35-12.68.38-6.92,5.54-12.87,3.95-20.15-.09-.4.1-.92.3-1.31,4.78-9.5,5.02-20.06,7.35-30.14,2.1-9.05,3.42-18.46,8-26.9,1.78-3.28,3.14-7.29,3.07-10.93-.08-4.45-2.58-8.43-6.55-11.05,3.36-4.35,2.71-9.72,3.62-14.67.4-2.2.03-4.54,0-6.82ZM453.72,348.17c.6-.36,1.09-.82,1.65-.95,8.04-1.91,16.12-3.68,24.14-5.68,7.1-1.77,11.05-9.4,8.39-15.84-2.57-6.24-10.99-9.69-17.88-7.42-4.63,1.53-9.21,3.58-13.97,4.25-13.22,1.86-25.38,6.79-37.39,12.17-4.22,1.89-8.36,3.88-12.86,5.03-7.08,1.81-13.18,5.76-19.46,9.21-4.37,2.4-7.16,6.35-6.01,11.91,1.06,5.11,4.43,7.79,9.23,9.32,4.34,1.38,8.25-.23,12.54-1.5-1.44,2.93-2.56,5.31-2.74,8.25-.35,5.94-1.48,11.72-.61,17.84.9,6.34-.46,12.97,2.24,19.16.29.67.43,1.49.37,2.21-.61,7.05,2.5,12.96,6.29,18.35,9.11,12.96,36.06,19.13,50.16,6.7,3.33-2.94,7.77-4.35,10.46-8.26,4.2-6.13,6.5-12.99,7.01-20.16.56-7.89-.98-15.81-1.34-23.74-.34-7.56-2.01-15.18-6.26-22.26-4.04-6.74-6.81-14.14-13.96-18.59ZM130.98,340c-1.19.74-1.93,1.28-2.73,1.68-11.44,5.58-16.19,16.17-19.64,27.33-2.14,6.91-3.21,14.24-3.26,21.54-.03,4.62-1.99,9.19-.76,13.7.87,3.17,1.24,6.28,1.5,9.52.48,6.01,2.91,11.85,7.36,15.33,7.45,5.82,14.91,11.93,25.23,13.01,10.19,1.06,18.59-2.29,25.45-8.94,8.16-7.92,11.46-18.8,14.09-29.5,2.52-10.24.28-20.77-.11-31.15-.22-5.86-.81-5.84,5.17-4.33,7.1,1.79,14.42-1.32,16.84-7.15,2.09-5.03-.41-12.28-5.98-14.97-12.03-5.81-22.64-13.99-34.43-20.18-3.82-2-8.18-2.72-11.65-5.41-4.61-3.57-10.14-5.59-14.87-9.07-3.82-2.82-8.71-2.8-13.36-1.99-5.78,1-10.41,6.04-10.94,11.66-.43,4.53,2.66,8.59,7.97,11.22,4.69,2.31,9.18,5,14.12,7.72ZM593.58,386c6.74.21,12.39-.9,17.71-3.48,3.42-1.66,5.91-4.31,5.58-8.27-.34-4.01-2.85-6.75-6.84-7.77-8.05-2.06-16.32-2.35-24.51-2-6.7.29-13.48.97-20.14,1.5-6.3.5-11.61,2.42-16.82,5.05-5.96,3.01-6.31,9.97-.97,14.01,3.47,2.63,7.88,4.4,11.97,3.69,11.58-1.99,23.31-1.04,34.03-2.73Z"/>
        <path class="cls-6" d="M160.64,550.21c-9.32-7.02-16.46-16.16-24.17-24.75-1.96-2.19-.38-4.21,1.2-5.64,4.7-4.27,10.67-5.81,16.59-4.9,6.91,1.07,12.78,4.11,15,12.09,1.12,4.05,4.46,7.61,9.03,8.57,6.42,1.35,10.93-2.01,14.51-6.94,2.9-3.99,5.82-7.9,10.02-10.74,8.43-5.7,17.28-6.43,27.06-3.96,9.13,2.31,12.77,8.7,15.73,16.66,1.81,4.88,2.9,10.63,8.96,12.92,5.66,2.14,10.03-.73,14.14-3.56,2.12-1.46,3.65-4.1,4.82-6.68,6.18-13.57,19.83-18.16,33.82-12.5,8.38,3.39,11.46,9.37,12.27,17.51.8,8.09,11.23,14.9,18.2,11.13,3.14-1.7,5.09-5.84,5.8-9.79.98-5.45,1.97-10.75,5.74-15.24,5.37-6.39,12.56-8.15,20.16-7.8,6.78.31,12.95,2.85,18.14,7.82,3,2.87,7.51,3.19,11.53,4.25,7.24,1.92,14.31,4.32,21.97,4.42,14.27.19,27.3-3.89,39.97-10.15,10.72-5.3,22-9.46,32.72-14.77,9.12-4.52,17.96-9.69,26.59-15.11,5.02-3.15,10.05-5.98,15.77-7.53,6.66-1.81,11.23-6.98,16.8-10.53,1.69-1.08,3.24-2.42,5.35-2.61.48,2.82-.67,5.25-2.19,7.39-2.88,4.07-4.91,8.52-7.02,13.01-2.21,4.71-3.71,9.84-7.38,13.82-3.23,3.51-6.35,7.11-8.43,11.52-2.2,4.66-6.1,7.99-10.58,9.94-7.06,3.06-12.8,8.01-18.99,12.24-9.15,6.25-19.51,9.72-29.57,13.74-4.37,1.75-9.07,2.86-13.26,5.18-2.49,1.38-5.15,2.21-7.85,2.62-5.14.78-9.85,2.63-14.24,5.25-2.49,1.48-5.13,2.35-7.85,2.26-5.64-.19-10.58,1.76-15.46,4.17-2.19,1.08-4.33,2.38-6.96,1.88-5.76-1.09-11.29.24-16.88,1.44-7.79,1.67-15.67,2.76-23.47,4.48-8.5,1.87-17.36,2.07-26.04,3.16-1.82.23-3.45.94-5.38.16-4.79-1.93-9.88-1.91-14.98-2.31-9.58-.76-19.26.31-28.76-1.7-1.8-.38-3.62-.82-5.45-.9-16.49-.72-32.71-3.02-48.54-7.81-.88-.27-1.82-.62-2.69-.55-7.05.62-13.23-2.47-19.61-4.62-2.33-.79-4.68-1.45-7.05-2.09-8.29-2.24-16.63-4.31-24.89-6.58-7.53-2.07-14.66-5.58-21.95-8.48-.98-.39-1.77-.53-2.26.63Z"/>
        <path class="cls-6" d="M430.11,486.68c-13.37,8.89-27.53,4.36-41.55,2.96-6.07-.61-12.03-.7-18.09-2.5-10.57-3.14-19.16-8.31-25.9-17.14-5.85-7.67-17.36-6.88-23.26.69-3.02,3.88-4.62,8.29-6.05,12.77-1.21,3.78-3.52,5.76-7.08,7.14-6.59,2.55-12.76,4.88-20.22,1.96-5.94-2.32-8.77-6.2-10.38-11.75-2.4-8.27-7.13-12.04-14.8-11.75-5.23.19-11.06,4.85-12.89,10.94-4.29,14.26-14.92,14.73-24.99,11.64-4.11-1.26-7.81-4.06-11.5-6.45-4.04-2.62-3.74-7.58-5.14-11.46-2.87-7.98-9.35-11.75-17.13-8.78-3.89,1.48-7.48,4.13-8.67,7.92-3.08,9.8-10.32,13.03-19.44,13.99-3.76.4-7.35,1.47-11.36.26-3.57-1.07-6.14-4.16-10.08-4.08.09-1.84,1.42-2.63,2.41-3.29,13.98-9.36,25.29-21.77,37.37-33.24,17.03-16.17,35.75-29.91,56.59-40.59,9.81-5.03,20.52-7.61,31.78-7.03,3.06.16,6.15-.45,9.22-.43,9.56.06,18.27,3.68,27.25,6.39,19.93,6.01,36.18,18.37,53.13,29.65,7.44,4.95,15.03,9.76,22.45,14.71,12.79,8.53,25.75,16.94,37.45,27.07,3.95,3.41,8.28,6.29,10.87,10.41ZM264.76,415.2c-6.91.18-13.87-.57-20.67,1.62-6.88,2.22-8.75,5.38-8.73,12.42.02,5.97,3.56,9.55,6.76,13.69,5.81,7.5,12.27,12.83,22.71,12.37,10.45-.46,27.64-11.15,31.7-21.01,2.39-5.79.69-10.37-4.55-13.91-8.39-5.67-17.85-5.09-27.23-5.18Z"/>
        <path class="cls-5" d="M160.64,550.21c.49-1.17,1.28-1.03,2.26-.63,7.29,2.91,14.43,6.41,21.95,8.48,8.27,2.27,16.61,4.34,24.89,6.58,2.38.64,4.72,1.3,7.05,2.09,6.38,2.16,12.55,5.24,19.61,4.62.88-.08,1.82.28,2.69.55,15.83,4.8,32.05,7.09,48.54,7.81,1.83.08,3.65.52,5.45.9,9.49,2.02,19.18.95,28.76,1.7,5.09.4,10.18.38,14.98,2.31,1.93.78,3.57.07,5.38-.16,8.68-1.09,17.54-1.29,26.04-3.16,7.8-1.72,15.69-2.82,23.47-4.48,5.58-1.2,11.12-2.53,16.88-1.44,2.63.5,4.77-.8,6.96-1.88,4.88-2.41,9.82-4.37,15.46-4.17,2.72.09,5.36-.78,7.85-2.26,4.39-2.62,9.09-4.47,14.24-5.25,2.7-.41,5.37-1.24,7.85-2.62,4.18-2.32,8.89-3.43,13.26-5.18,10.06-4.02,20.42-7.49,29.57-13.74,6.2-4.23,11.94-9.18,18.99-12.24,4.48-1.94,8.39-5.28,10.58-9.94,2.08-4.41,5.2-8.01,8.43-11.52,3.66-3.98,5.17-9.11,7.38-13.82,2.11-4.49,4.13-8.94,7.02-13.01,1.52-2.14,2.67-4.57,2.19-7.39,4.68-2.17,8.43-5.46,12.1-9.1,6.03-5.97,14.1-9.49,20.07-15.59,4.12-4.21,8.68-7.37,14.5-8.62,7.82-1.68,15.62-3.52,23.46-5.13,1.45-.3,3.07.06,4.59.25,3.88.5,5,2.51,4.24,6.45-1.04,5.34-3.56,10.12-5.02,15.26-3.21,11.32-9.94,20.64-16.14,30.39-4.21,6.62-8.82,12.86-13.57,19.06-5.22,6.81-12.01,11.96-18.63,17.16-10.13,7.94-21.06,14.84-31.8,21.88-12.53,8.21-25.79,15.51-40.15,20.45-5.66,1.95-11.08,4.61-16.7,6.67-10.9,4.01-21.8,8.05-32.84,11.65-10.05,3.28-20.22,6.12-30.63,8.23-14.39,2.93-29.05,3.71-43.47,6.1-13.67,2.26-27.44,1.52-41.13,2.88-12.6,1.25-25.24-.39-37.8-1.78-17.15-1.89-34.18-4.72-51.27-7.04-12.51-1.7-24.92-5-36.78-9.96-8.9-3.72-18.47-5.88-27.21-9.89-12.1-5.56-24.13-11.56-33.55-21.47Z"/>
        <path class="cls-4" d="M453.72,348.17c7.15,4.45,9.92,11.85,13.96,18.59,4.24,7.08,5.91,14.7,6.26,22.26.36,7.93,1.9,15.85,1.34,23.74-.51,7.18-2.81,14.04-7.01,20.16-2.69,3.92-7.13,5.33-10.46,8.26-14.1,12.42-41.05,6.26-50.16-6.7-3.79-5.39-6.9-11.3-6.29-18.35.06-.72-.08-1.54-.37-2.21-2.7-6.19-1.34-12.82-2.24-19.16-.87-6.12.26-11.9.61-17.84.17-2.94,1.29-5.33,2.74-8.25-4.29,1.27-8.2,2.88-12.54,1.5-4.8-1.53-8.17-4.21-9.23-9.32-1.15-5.56,1.64-9.51,6.01-11.91,6.27-3.45,12.38-7.4,19.46-9.21,4.49-1.15,8.64-3.14,12.86-5.03,12.01-5.38,24.17-10.31,37.39-12.17,4.76-.67,9.34-2.72,13.97-4.25,6.89-2.28,15.31,1.18,17.88,7.42,2.66,6.44-1.29,14.07-8.39,15.84-8.02,2-16.1,3.77-24.14,5.68-.56.13-1.05.59-1.65.95ZM427.51,406.04c-1.42,4.55.83,8.29,1.82,11.97.8,2.96,3.97,5.85,7.81,5.15,3.21-.58,8.1-1.92,7.83-5.17-.6-7.23,2.82-13.68,2.16-21.01-.96-10.53-2.87-20.21-9.87-28.44-1.11-1.3-1.8-2.81-3.89-2.24-2.06.56-3.71,1.51-4.02,3.88-.23,1.8-.09,3.56-.68,5.41-2.76,8.59-3.91,17.33-1.59,26.28.38,1.46.32,3.04.43,4.18Z"/>
        <path class="cls-4" d="M130.98,340c-4.93-2.72-9.43-5.41-14.12-7.72-5.31-2.62-8.41-6.69-7.97-11.22.54-5.62,5.16-10.66,10.94-11.66,4.65-.8,9.54-.82,13.36,1.99,4.72,3.48,10.26,5.5,14.87,9.07,3.47,2.69,7.83,3.4,11.65,5.41,11.8,6.19,22.4,14.38,34.43,20.18,5.57,2.69,8.08,9.94,5.98,14.97-2.42,5.83-9.74,8.94-16.84,7.15-5.98-1.51-5.39-1.53-5.17,4.33.39,10.38,2.63,20.92.11,31.15-2.63,10.7-5.93,21.58-14.09,29.5-6.86,6.65-15.26,10-25.45,8.94-10.33-1.07-17.78-7.19-25.23-13.01-4.45-3.47-6.88-9.32-7.36-15.33-.26-3.23-.63-6.34-1.5-9.52-1.23-4.51.73-9.09.76-13.7.05-7.3,1.12-14.62,3.26-21.54,3.46-11.16,8.21-21.75,19.64-27.33.81-.39,1.54-.94,2.73-1.68ZM151.44,388.86c.28-9.42-1.4-16.56-5.24-23.18-1.34-2.31-4.67-3.41-5.75-1.64-1.19,1.95-2.43,3.98-3.07,6.15-3.07,10.34-4.99,20.95-5.28,31.7-.1,3.59-.34,8.23,3.47,10.82,2.32,1.58,4.95,3.24,7.61,3.6,1.63.22,2.26-2.87,3.29-4.5,4.8-7.61,3.73-16.43,4.97-22.95Z"/>
        <path class="cls-4" d="M593.58,386c-10.72,1.7-22.45.75-34.03,2.73-4.09.7-8.49-1.06-11.97-3.69-5.34-4.05-4.99-11,.97-14.01,5.21-2.63,10.52-4.55,16.82-5.05,6.67-.53,13.44-1.22,20.14-1.5,8.19-.35,16.46-.06,24.51,2,3.99,1.02,6.5,3.76,6.84,7.77.34,3.96-2.16,6.61-5.58,8.27-5.31,2.58-10.97,3.68-17.71,3.48Z"/>
        <path class="cls-1" d="M264.76,415.21c9.38.08,18.84-.5,27.23,5.17,5.24,3.54,6.93,8.12,4.55,13.91-4.06,9.85-21.25,20.55-31.7,21.01-10.44.46-16.91-4.87-22.71-12.37-3.21-4.14-6.75-7.72-6.76-13.69-.02-7.05,1.85-10.2,8.73-12.42,6.8-2.19,13.75-1.44,20.67-1.61Z"/>
        <path class="cls-3" d="M427.51,406.04c-.11-1.14-.05-2.71-.43-4.18-2.32-8.94-1.17-17.69,1.59-26.28.59-1.85.45-3.61.68-5.41.31-2.36,1.96-3.31,4.02-3.88,2.08-.57,2.78.94,3.89,2.24,7.01,8.23,8.92,17.91,9.87,28.44.67,7.33-2.76,13.78-2.16,21.01.27,3.25-4.62,4.59-7.83,5.17-3.84.7-7.02-2.19-7.81-5.15-.99-3.67-3.24-7.42-1.82-11.97Z"/>
        <path class="cls-3" d="M151.44,388.86c-1.23,6.51-.17,15.34-4.97,22.95-1.03,1.64-1.66,4.73-3.29,4.5-2.66-.36-5.29-2.02-7.61-3.6-3.81-2.59-3.56-7.23-3.47-10.82.29-10.75,2.21-21.36,5.28-31.7.64-2.17,1.88-4.2,3.07-6.15,1.08-1.77,4.41-.67,5.75,1.64,3.84,6.62,5.52,13.76,5.24,23.18Z"/>
      </g>
      <g>
        <path class="cls-7" d="M872.17,165.38c0-5.67,4.36-10.9,10.03-10.9l69.79-3.93c22.68-7.42,48.41-11.34,74.15-11.34,73.71,0,150.91,31.84,175.77,108.17,9.6,29.22,13.96,56.26,13.96,80.69,0,123.43-108.17,191.04-232.04,191.04-20.06,0-40.56-1.74-61.06-5.23-3.49-.87-6.98-1.31-10.03-1.74-14.39-3.49-22.68-10.47-23.55-27.04l-17.01-319.7ZM995.17,416.61c3.49.44,6.98.44,10.47.44,50.59,0,92.46-36.2,92.46-91.59,0-7.41-.44-93.77-81.12-93.77-10.47,0-21.37,1.74-31.4,4.36l9.6,180.57Z"/>
        <path class="cls-7" d="M1402.98,517.36c-99.01,0-148.73-67.6-148.73-133.9,0-62.37,44.05-127.79,143.5-127.79,108.17,0,112.96,96.39,112.96,110.78,0,20.06-8.29,36.64-34.02,45.36-20.5,6.98-52.78,11.78-75.46,12.65-6.98,0-9.16-3.05-10.9-8.29-5.23-14.39-13.52-42.74-13.52-44.49,0-4.8,3.49-6.98,9.16-8.29,22.68-5.23,25.73-6.11,25.73-12.21,0-3.93-8.29-17.88-26.61-17.88-20.94,0-38.38,18.32-38.38,45.36,0,30.97,22.68,65.86,77.2,65.86,3.05,0,6.54,0,9.6-.44h.87c6.11,0,13.52,3.93,13.52,11.34,0,4.36-11.34,34.02-17.88,48.85-3.49,6.98-9.16,13.08-21.81,13.08h-5.23Z"/>
        <path class="cls-7" d="M1753.22,337.23c-1.74,5.23-6.54,9.6-11.78,9.6-1.74,0-3.92-.87-5.67-2.18-7.85-6.54-23.12-11.34-38.38-11.34-11.34,0-49.29,2.62-49.29,50.16,0,29.22,20.94,48.41,49.29,48.41,18.75,0,40.56-8.29,61.5-27.48,2.62-2.62,6.54-4.8,10.47-4.8,3.05,0,6.54,1.74,9.6,6.98,7.85,14.83,13.08,22.68,20.06,37.07,1.31,2.62,2.18,5.67,2.18,8.72,0,5.23-2.18,10.03-7.42,15.27-35.33,33.58-77.2,48.41-116.45,48.41-72.4,0-136.52-50.59-136.52-127.36,0-97.7,78.07-137.39,150.04-137.39,48.41,0,83.31,19.19,83.31,30.1,0,.87,0,2.18-.44,3.05l-20.5,52.77Z"/>
        <path class="cls-7" d="M1855.71,512.13c-5.23,0-9.6-3.49-9.6-8.72l-12.21-226.8c0-5.23,3.92-9.6,8.72-9.6l50.59-2.62c23.55-7.41,46.23-10.9,68.04-10.9,14.83,0,29.22,1.74,42.74,4.8,6.54,1.75,9.16,5.23,9.16,10.47,0,1.75-.44,3.49-.87,5.67l-12.65,61.5c-1.31,6.11-5.67,9.16-10.9,9.16-1.31,0-3.05-.44-4.8-.87-6.98-2.18-14.39-3.49-21.81-3.49-6.11,0-12.21.87-19.19,2.62l8.29,154.4v.87c0,4.8-3.93,8.72-8.72,8.72l-86.79,4.8Z"/>
        <path class="cls-7" d="M2050.68,608.08c-6.54-2.62-9.59-6.11-9.59-10.47,0-3.05,1.31-6.11,3.49-9.16l68.48-101.62c-1.31-1.31-2.18-3.49-3.49-6.11l-81.56-184.49c-1.31-3.05-2.18-5.67-2.18-7.85,0-6.11,5.23-10.03,11.78-11.78l69.35-20.5c1.75-.44,3.49-.87,5.23-.87,7.85,0,13.52,5.67,16.57,13.08l51.9,117.33c25.73-38.82,50.59-77.64,71.97-111.22,2.62-4.36,5.67-6.98,10.47-6.98,2.62,0,6.54.87,10.9,3.49l64.99,33.58c5.23,2.62,7.85,5.67,7.85,9.6,0,6.54-33.15,95.96-211.54,312.73-4.36,4.8-8.29,7.41-13.52,7.41-2.18,0-4.8-.44-7.85-1.74l-63.24-24.42Z"/>
        <path class="cls-7" d="M2385.22,622.91c-4.36,0-8.29-3.93-8.29-8.72v-.87l17.45-344.56c.44-4.8,4.36-8.72,8.72-8.72h.87l72.84,3.93c18.75-6.98,37.95-10.47,56.26-10.47,76.76,0,145.68,55.83,145.68,135.21s-56.26,129.54-138.7,129.54c-18.32,0-36.2-2.62-52.34-7.85l-5.67,108.6c-.44,5.23-4.36,8.72-9.59,8.72l-87.23-4.8ZM2491.64,429.26c9.6,4.8,22.24,8.29,34.46,8.29,3.49,0,45.36,0,45.36-47.98,0-30.1-22.68-51.03-53.21-51.03-6.98,0-14.39,1.31-21.81,3.49l-4.8,87.23Z"/>
        <path class="cls-7" d="M2861.5,501.22c-3.49,8.29-7.41,12.65-13.96,12.65-1.31,0-2.62,0-3.92-.44-70.22-13.96-94.65-52.34-96.83-162.69l-32.71-1.75c-4.8-.44-8.72-4.8-8.72-9.6l5.23-72.4c.44-4.8,4.36-8.72,9.6-8.72l27.91,1.75c.87-16.57,1.74-34.46,3.05-53.21.44-5.23,1.31-13.52,12.65-13.52h1.75l82.43,3.93c7.42.44,10.9,4.8,10.9,12.21-.87,18.32-2.18,37.51-3.49,55.83l30.09,1.75c4.8,0,8.72,4.36,8.72,9.6l-5.23,72.4c-.44,4.36-3.93,8.29-8.72,8.29h-.87l-28.79-1.31c0,39.69,5.23,69.79,24.42,78.07,4.8,2.18,10.03,3.93,10.03,8.72,0,.87-.44,2.18-.87,3.49l-22.68,54.96Z"/>
      </g>
    </g>
  </g>
</svg>