<?xml version="1.0" encoding="UTF-8"?>
<svg id="Layer_2" data-name="Layer 2" xmlns="http://www.w3.org/2000/svg" viewBox="0 0 2881.5 639.12">
  <defs>
    <style>
      .cls-1 {
        fill: #242424;
      }

      .cls-1, .cls-2, .cls-3, .cls-4, .cls-5, .cls-6, .cls-7 {
        stroke-width: 0px;
      }

      .cls-2 {
        fill: #8fcef0;
      }

      .cls-3 {
        fill: #fefefe;
      }

      .cls-4 {
        fill: #232424;
      }

      .cls-5 {
        fill: #e5dec6;
      }

      .cls-6 {
        fill: #fcf4da;
      }

      .cls-7 {
        fill: #fff;
      }
    </style>
  </defs>
  <g id="Layer_1-2" data-name="Layer 1">
    <g>
      <g>
        <path class="cls-1" d="M0,369.39c3.41-5.52,8.97-6.74,14.76-7.03,7.92-.41,15.85-.79,23.8-.39,3.37.17,6.7.23,10,1.08,5.45,1.42,6.64.97,7.9-4.38,2.42-10.31,5.85-20.32,7.95-30.77,4.44-22.11,9.42-44.17,18.49-65,1.09-2.5,2.27-4.95,3.45-7.4,3.09-6.39,7.35-7.87,14.14-4.97,3.97,2.63,6.47,6.6,6.55,11.05.07,3.64-1.29,7.65-3.07,10.93-4.58,8.45-5.9,17.86-8,26.9-2.33,10.08-2.57,20.64-7.35,30.14-.2.39-.39.91-.3,1.31,1.59,7.28-3.57,13.23-3.95,20.15-.24,4.43-2.82,8.45-3.35,12.68-1.2,9.66-1.45,19.45-2.04,29.19-.16,2.62-.31,5.21-.65,7.83-.9,6.77-1.02,14.11,1.31,20.11,2.83,7.27,3.89,14.96,7.14,22.16,4.71,10.44,11.23,18.86,19.64,26.47,9.74,8.81,17.55,6.05,25.67.16,8.71-6.32,16.89-13.36,24.39-21.21,6.5-6.8,14.4-12.24,20.91-18.94,7.07-7.28,14.7-13.8,23.07-19.15,13.83-8.85,27.45-18.05,43.49-23.19,12.26-3.93,24.62-4.44,36.99-3.94,11.04.45,21.77,3.63,32.38,7.29,12.7,4.38,24.74,10.19,35.45,17.81,15.6,11.1,31.97,20.99,47.51,32.15,11.42,8.2,23.47,15.48,33.98,24.94,2.35,2.11,4.68,4.76,7.96,5.42,16.74,3.37,33.38,6.99,50.75,5.82,17-1.15,32.9-4.94,47.12-14.69,2.14-1.47,5.02-2.06,6.75-3.85,9.13-9.44,20.77-15.18,31.63-22.07,1-.64,2.61-1.05,2.32-2.5-.27-1.32-2.01-1.06-3.05-1.58-.76-.38-1.82-.15-2.75-.17-6.99-.15-13.61-2.17-20.1-4.46-3.65-1.29-6.21-3.9-6.41-8.17-.2-4.35,2.37-6.85,5.87-8.5,1.89-.9,4.09-1.71,6.13-1.66,13.65.33,27.16,2.07,40.4,5.33,3.74.92,6.1.26,8.63-2.2,3.86-3.74,7.84-7.36,11.85-10.93,4.6-4.1,9.96-7.16,13.64-12.52,4.66-6.79,10.64-12.57,17.68-17.1,1.28-.83,2.41-2.09,2.52-3.75.28-4.24.91-8.39.71-12.75-.22-5-1.93-10.28.49-15.27.47-.96.75-2.04.33-3.14-2.46-6.46-1.82-13.27-2.28-19.96-.12-1.72,1.38-3.11.59-4.94-3.82-8.85-1.95-18.49-3.68-27.69-1.53-8.13-2.03-16.59-4.48-24.42-3.22-10.31,1.07-14.23,7.51-17.42,10.14-.63,15.53,3.1,16.93,13.09.96,6.86,3.26,13.35,4.35,20.1,1.59,9.89,3.91,19.66,4.34,29.78.22,5.3,2.76,10.37,2.18,15.97-1.29,12.58,2.01,25.1.93,37.68-.74,8.63-1.04,17.23-.84,25.9.12,5.25-3.23,9.76-4.36,14.82-2.69,11.97-6.02,23.76-9.63,35.48-.13.43-.14.94-.37,1.31-5.44,8.44-6.58,18.49-10.34,27.56-4.05,9.8-7.45,20.03-13.04,28.98-10.43,16.69-21.63,32.88-38.9,43.69-5.59,3.5-10.53,8.08-15.77,12.15-5.63,4.38-12.19,7.53-18.15,11.52-8.16,5.46-16.74,10.17-25.28,14.96-4.66,2.61-9.38,5.16-14.49,6.91-4.8,1.65-9.45,3.66-14.11,5.72-10.97,4.86-22.55,8.07-33.95,11.8-12.31,4.02-24.94,6.6-37.33,10.16-10.98,3.15-22.35,4.16-33.54,6.16-11.34,2.03-22.71,4.2-34.17,5.19-7.6.65-15.15,3.06-22.95,1.44-2.35-.49-4.86-.3-7.25.75-1.34.59-2.98.89-4.44.76-10.8-.91-21.67-.79-32.43-2.25-6.81-.93-13.63-1.33-20.43-2.92-8.32-1.94-17.07-1.95-25.55-3.34-6.98-1.15-13.77-3.48-20.75-4.59-12.23-1.95-23.8-6.2-35.61-9.61-10.43-3.01-19.64-8.57-29.2-13.55-9.75-5.08-17.15-12.97-25.98-19.07-4.32-2.99-7.23-7.47-10.89-11.15-9.22-9.27-17.54-19.43-26.21-29.24-.72-.81-1.26-1.8-2.07-2.5-8.61-7.56-14.5-17.7-23.27-25.02-7.01-5.85-11.53-13.74-17.79-20.17-1.53-1.57-2.56-3.84-3.29-5.96-3.23-9.38-9.24-17.64-9.81-28.18-.26-4.94-1.22-9.98-1.22-15.01,0-3.02-1.31-3.95-3.97-3.47-10.04,1.84-20.17,3.06-30.17,5.17-5.52,1.17-11.1.86-15.24-4.05-3.84-4.55-2.91-10.36,2.29-13.2,7.06-3.85,14.83-5.24,22.68-6.52,6.56-1.07,13.08-2.3,19.72-2.64,1.61-.08,2.01-.72,2.06-2.26.18-5.62.48-11.25.83-16.86.1-1.66-.11-2.39-2.1-2.6-5.82-.61-11.71-.41-17.48-1.03-7.4-.79-14.87-.54-22.23-2.15-5.2-1.14-9.16-3.54-12.11-7.83v-4.65ZM160.64,550.21c9.42,9.91,21.44,15.91,33.55,21.47,8.74,4.02,18.32,6.17,27.21,9.89,11.86,4.96,24.27,8.27,36.78,9.96,17.09,2.32,34.12,5.15,51.27,7.04,12.57,1.39,25.2,3.02,37.8,1.78,13.69-1.35,27.45-.62,41.13-2.88,14.42-2.39,29.07-3.17,43.47-6.1,10.41-2.12,20.58-4.95,30.63-8.23,11.04-3.61,21.94-7.65,32.84-11.65,5.62-2.07,11.04-4.73,16.7-6.67,14.35-4.94,27.62-12.24,40.15-20.45,10.73-7.03,21.67-13.94,31.8-21.88,6.63-5.19,13.42-10.35,18.63-17.16,4.75-6.2,9.36-12.43,13.57-19.06,6.2-9.75,12.93-19.06,16.14-30.39,1.46-5.14,3.98-9.92,5.02-15.26.77-3.94-.35-5.96-4.24-6.45-1.52-.19-3.14-.55-4.59-.25-7.84,1.61-15.63,3.45-23.46,5.13-5.82,1.25-10.38,4.41-14.5,8.62-5.97,6.1-14.04,9.62-20.07,15.59-3.68,3.64-7.42,6.93-12.1,9.1-2.12.19-3.66,1.54-5.35,2.62-5.58,3.55-10.14,8.72-16.8,10.53-5.71,1.56-10.74,4.38-15.77,7.53-8.63,5.42-17.47,10.58-26.59,15.11-10.71,5.31-22,9.47-32.72,14.77-12.67,6.26-25.7,10.34-39.97,10.15-7.65-.1-14.72-2.51-21.97-4.42-4.02-1.06-8.54-1.38-11.53-4.25-5.19-4.97-11.35-7.51-18.14-7.82-7.61-.35-14.79,1.41-20.16,7.8-3.77,4.49-4.76,9.79-5.74,15.24-.71,3.95-2.66,8.1-5.8,9.79-6.97,3.77-17.4-3.03-18.2-11.13-.81-8.14-3.89-14.12-12.27-17.51-13.99-5.66-27.65-1.07-33.82,12.5-1.17,2.58-2.7,5.22-4.82,6.68-4.11,2.83-8.48,5.7-14.14,3.56-6.06-2.29-7.15-8.04-8.96-12.92-2.96-7.96-6.6-14.35-15.73-16.66-9.78-2.47-18.63-1.74-27.06,3.96-4.2,2.84-7.11,6.75-10.02,10.74-3.59,4.93-8.09,8.29-14.51,6.94-4.57-.96-7.9-4.52-9.03-8.57-2.22-7.99-8.09-11.03-15-12.09-5.92-.91-11.89.63-16.59,4.9-1.58,1.44-3.17,3.45-1.2,5.64,7.71,8.59,14.86,17.73,24.17,24.75ZM430.11,486.68c-2.58-4.12-6.92-7-10.87-10.41-11.71-10.13-24.67-18.54-37.45-27.07-7.41-4.94-15.01-9.76-22.45-14.71-16.96-11.28-33.21-23.63-53.13-29.65-8.98-2.71-17.69-6.33-27.25-6.39-3.07-.02-6.16.59-9.22.43-11.26-.59-21.97,2-31.78,7.03-20.83,10.68-39.55,24.42-56.59,40.59-12.09,11.47-23.39,23.87-37.37,33.24-.99.66-2.33,1.45-2.41,3.29,3.95-.08,6.51,3.01,10.08,4.08,4.02,1.21,7.6.14,11.36-.26,9.12-.96,16.36-4.19,19.44-13.99,1.19-3.79,4.78-6.44,8.67-7.92,7.78-2.96,14.26.8,17.13,8.78,1.4,3.89,1.09,8.84,5.14,11.46,3.69,2.4,7.39,5.19,11.5,6.45,10.07,3.08,20.7,2.62,24.99-11.64,1.83-6.09,7.66-10.75,12.89-10.94,7.66-.28,12.4,3.48,14.8,11.75,1.61,5.55,4.44,9.43,10.38,11.75,7.46,2.92,13.63.59,20.22-1.96,3.56-1.38,5.87-3.36,7.08-7.14,1.44-4.47,3.03-8.88,6.05-12.77,5.9-7.58,17.41-8.37,23.26-.69,6.73,8.83,15.33,14,25.9,17.14,6.06,1.8,12.02,1.89,18.09,2.5,14.02,1.4,28.17,5.93,41.55-2.96Z"/>
        <path class="cls-4" d="M104.13,229.04c-8.6,1.99-16.39-3.53-17.57-12.79-2.01-15.82-2.45-31.75-1.78-47.64.58-13.74,2.39-27.43,3.77-41.13.18-1.79,1.04-3.51,1.65-5.25,1.63-4.69,4.04-9.16,3.59-14.41-.72-8.48,3.57-15.6,6.09-23.26,1.59-4.83,3.71-9.61,4.3-14.79.32-2.81,2.52-4.84,3.67-7.32,6.16-13.28,14.02-25.77,27.01-32.72,11.41-6.1,22.86-13.02,37.13-12.28,7.96.41,15.62,2.86,23.7,2.4,3.23-.19,6.78,1.76,9.88,3.33,6.83,3.47,14.53,4.49,20.97,9.54,5.23,4.09,12.09,6.2,17.03,11.11,1.31,1.3,3.36,2.27,3.94,3.82,1.75,4.65,5.52,7.63,9.05,10.28,4.77,3.57,7.32,8.55,10.6,13.07,9.72,13.38,19.87,26.52,28.55,40.56,4.7,7.6,8.69,15.86,12.51,24.05,2.14,4.58,5.8,7.81,8.57,11.81,1.7,2.45,1.4,6.85,4.84,7.27,2.82.34,5.88-1.3,8.84-2.03,7.02-1.73,14.16-2.54,21.39-2.81,2.92-.11,5.89-.35,8.71-1.03,8.63-2.06,17.3-3.53,26.08-1.54,5.96,1.35,12.23-.73,18.1,2.27,1.96,1,2.55-2.2,3.06-3.75,2.32-7.06,4.32-14.23,6.62-21.29,2.52-7.73,4.7-15.6,6.95-23.37,3.36-11.61,8.69-22.42,12.12-34,3.47-11.72,9.91-22.28,16.97-32.51,5.31-7.71,11.76-14,18.44-20.2,6.26-5.81,14.38-8.18,22.32-10.53,4.14-1.22,8.27-2.44,12.34-3.89h3.72c3.33,2.48,7.52,2.58,11.16,2.65,8.67.16,16.12,4.32,24.21,6.04,14.87,3.15,24.71,13.82,35.11,23.07,6.8,6.05,13.31,13.1,17.88,21.66,3.86,7.23,8.26,14.21,11.86,21.61,1.46,3.01,4.61,4.54,6.15,7.43,4.36,8.19,8.43,16.42,10.27,25.69.81,4.1,2.96,8.11,4.89,11.77,3.92,7.46,5.28,15.59,7.23,23.45,1.47,5.94,4.63,11.23,5.42,17.33,1.08,8.4,5.26,16.01,5.26,24.88,0,6.16,1.52,12.6,3.65,18.64,2.3,6.51-.91,10.75-5.78,14.35-6.31,1.01-11.58-.44-15.02-6.31-3.92-6.68-5.38-14.33-6.41-21.64-.88-6.18-2.48-12.34-4.12-18.02-3.63-12.49-7.52-25-12.04-37.29-4.46-12.11-8.52-24.36-13.21-36.41-3.1-7.98-5.97-16.22-10.76-23.07-6.51-9.3-12.25-19.29-21.36-26.79-6.52-5.36-13.03-10.73-19.78-15.81-4.18-3.15-8.52-5.95-13.95-6.13-1.61-.05-2.92-.9-4.4-1.14-5.4-.88-9.94-4.91-16.26-2.96-3.93,1.21-7.47,3.82-11.67,3.87-5.27.06-9.62,3.41-12.72,6.19-5.88,5.27-10.29,12.35-14.38,19.31-4.23,7.2-6.54,15.42-10.64,22.57-4.58,7.99-5.52,16.98-8.51,25.32-3.56,9.9-7.44,19.9-9.72,30.36-1.74,8.02-4.54,15.85-7.32,23.6-1.97,5.49-.92,11.37-2.96,16.83-1.75,4.69-2.91,9.59-4.44,14.37-2.26,7.08-10.95,11.11-17.94,8.4-7.39-2.86-9.6-8.82-6.34-16.82.87-2.12,1.58-4.32,2.18-6.53.4-1.49.1-2.81-1.87-2.95-4.46-.32-8.95-1.12-13.38-.86-11.86.69-23.47,3.48-35.44,3.89-11.1.38-21.56,4.99-32.36,7.51-5.67,1.32-10.69,4.38-16.01,6.51-12.76,5.09-25.07,10.79-36.46,18.54-5.38,3.66-15,1.94-18.11-2.65-3.21-4.73-1.88-12.28,3.27-15.94,4.08-2.9,8.37-5.72,12.96-7.63,9.76-4.06,18.66-10.05,29.85-12.45-3.74-4.18-5.14-8.73-7.33-12.88-4.65-8.79-10.65-16.78-15.12-25.69-4.15-8.26-10.05-15.41-15.19-23.04-5.2-7.73-10.46-15.38-16.01-22.87-3.94-5.32-9.11-9.3-13.45-14.1-3.74-4.14-8.06-7.72-12.45-10.62-9.69-6.4-21-9.64-32.3-11.99-7.04-1.47-14.65-1.68-21.53.59-10.4,3.43-18.32,11.04-25.12,19.2-6.96,8.33-11.28,18.55-13.63,29.11-3.01,13.46-6.04,26.94-8.14,40.62-2.42,15.77-3.39,31.58-3.45,47.47-.04,10.97-.36,21.94.75,32.92.85,8.5-2.25,13.66-8.18,15.91Z"/>
        <path class="cls-2" d="M104.13,229.04c5.93-2.24,9.04-7.41,8.18-15.91-1.1-10.98-.79-21.95-.75-32.92.06-15.89,1.03-31.71,3.45-47.47,2.1-13.68,5.13-27.16,8.14-40.62,2.36-10.56,6.68-20.78,13.63-29.11,6.81-8.16,14.73-15.77,25.12-19.2,6.88-2.27,14.49-2.06,21.53-.59,11.3,2.36,22.61,5.6,32.3,11.99,4.39,2.9,8.7,6.48,12.45,10.62,4.34,4.8,9.51,8.79,13.45,14.1,5.55,7.49,10.8,15.14,16.01,22.87,5.14,7.63,11.04,14.78,15.19,23.04,4.48,8.91,10.47,16.91,15.12,25.69,2.19,4.14,3.59,8.7,7.33,12.88-11.18,2.4-20.09,8.39-29.85,12.45-4.59,1.91-8.88,4.74-12.96,7.63-5.15,3.65-6.47,11.21-3.27,15.94,3.12,4.6,12.73,6.32,18.11,2.65,11.39-7.75,23.7-13.45,36.46-18.54,5.33-2.13,10.35-5.18,16.01-6.51,10.8-2.52,21.26-7.13,32.36-7.51,11.97-.41,23.58-3.19,35.44-3.89,4.43-.26,8.92.55,13.38.86,1.96.14,2.27,1.46,1.87,2.95-.6,2.21-1.32,4.41-2.18,6.53-3.26,8-1.05,13.95,6.34,16.82,6.99,2.71,15.68-1.32,17.94-8.4,1.53-4.78,2.69-9.68,4.44-14.37,2.03-5.46.99-11.34,2.96-16.83,2.78-7.75,5.58-15.58,7.32-23.6,2.27-10.46,6.16-20.47,9.72-30.36,3-8.34,3.93-17.33,8.51-25.32,4.1-7.15,6.42-15.36,10.64-22.57,4.09-6.97,8.5-14.04,14.38-19.31,3.09-2.77,7.45-6.13,12.72-6.19,4.2-.05,7.74-2.66,11.67-3.87,6.32-1.95,10.86,2.08,16.26,2.96,1.48.24,2.79,1.09,4.4,1.14,5.43.18,9.77,2.99,13.95,6.13,6.75,5.08,13.25,10.44,19.78,15.81,9.11,7.5,14.85,17.48,21.36,26.79,4.8,6.86,7.66,15.1,10.76,23.07,4.68,12.05,8.74,24.31,13.21,36.41,4.53,12.28,8.42,24.8,12.04,37.29,1.65,5.68,3.25,11.84,4.12,18.02,1.03,7.31,2.49,14.96,6.41,21.64,3.45,5.88,8.71,7.32,15.02,6.31.39,8.24,2.95,15.95,5.76,23.6-6.44,3.2-10.73,7.12-7.51,17.42,2.45,7.83,2.95,16.3,4.48,24.42,1.73,9.2-.14,18.83,3.68,27.69.79,1.83-.71,3.21-.59,4.94.46,6.69-.17,13.5,2.28,19.96.42,1.1.13,2.17-.33,3.14-2.43,5-.72,10.28-.49,15.27.2,4.36-.43,8.51-.71,12.75-.11,1.66-1.23,2.93-2.52,3.75-7.04,4.53-13.02,10.31-17.68,17.1-3.68,5.37-9.04,8.42-13.64,12.52-4.01,3.57-8,7.19-11.85,10.93-2.53,2.46-4.89,3.12-8.63,2.2-13.24-3.26-26.75-5.01-40.4-5.33-2.04-.05-4.23.76-6.13,1.66-3.49,1.65-6.07,4.15-5.87,8.5.2,4.27,2.76,6.88,6.41,8.17,6.5,2.29,13.11,4.31,20.1,4.46.93.02,1.99-.2,2.75.17,1.04.52,2.78.27,3.05,1.58.29,1.45-1.32,1.86-2.32,2.5-10.86,6.9-22.49,12.64-31.63,22.07-1.73,1.79-4.62,2.38-6.75,3.85-14.21,9.76-30.11,13.55-47.12,14.69-17.37,1.17-34.01-2.44-50.75-5.82-3.28-.66-5.61-3.31-7.96-5.42-10.51-9.46-22.56-16.75-33.98-24.94-15.54-11.16-31.91-21.06-47.51-32.15-10.71-7.62-22.75-13.43-35.45-17.81-10.61-3.66-21.34-6.84-32.38-7.29-12.37-.5-24.73.01-36.99,3.94-16.04,5.14-29.66,14.34-43.49,23.19-8.37,5.35-16,11.88-23.07,19.15-6.51,6.71-14.41,12.14-20.91,18.94-7.5,7.85-15.68,14.89-24.39,21.21-8.12,5.89-15.93,8.66-25.67-.16-8.41-7.61-14.93-16.04-19.64-26.47-3.25-7.19-4.31-14.89-7.14-22.16-2.33-6-2.21-13.35-1.31-20.11.35-2.62.49-5.21.65-7.83.59-9.74.84-19.52,2.04-29.19.53-4.24,3.11-8.26,3.35-12.68.38-6.92,5.54-12.87,3.95-20.15-.09-.4.1-.92.3-1.31,4.78-9.5,5.02-20.06,7.35-30.14,2.1-9.05,3.42-18.46,8-26.9,1.78-3.28,3.14-7.29,3.07-10.93-.08-4.45-2.58-8.43-6.55-11.05,3.36-4.35,2.71-9.72,3.62-14.67.4-2.2.03-4.54,0-6.82ZM453.72,348.17c.6-.36,1.09-.82,1.65-.95,8.04-1.91,16.12-3.68,24.14-5.68,7.1-1.77,11.05-9.4,8.39-15.84-2.57-6.24-10.99-9.69-17.88-7.42-4.63,1.53-9.21,3.58-13.97,4.25-13.22,1.86-25.38,6.79-37.39,12.17-4.22,1.89-8.36,3.88-12.86,5.03-7.08,1.81-13.18,5.76-19.46,9.21-4.37,2.4-7.16,6.35-6.01,11.91,1.06,5.11,4.43,7.79,9.23,9.32,4.34,1.38,8.25-.23,12.54-1.5-1.44,2.93-2.56,5.31-2.74,8.25-.35,5.94-1.48,11.72-.61,17.84.9,6.34-.46,12.97,2.24,19.16.29.67.43,1.49.37,2.21-.61,7.05,2.5,12.96,6.29,18.35,9.11,12.96,36.06,19.13,50.16,6.7,3.33-2.94,7.77-4.35,10.46-8.26,4.2-6.13,6.5-12.99,7.01-20.16.56-7.89-.98-15.81-1.34-23.74-.34-7.56-2.01-15.18-6.26-22.26-4.04-6.74-6.81-14.14-13.96-18.59ZM130.98,340c-1.19.74-1.93,1.28-2.73,1.68-11.44,5.58-16.19,16.17-19.64,27.33-2.14,6.91-3.21,14.24-3.26,21.54-.03,4.62-1.99,9.19-.76,13.7.87,3.17,1.24,6.28,1.5,9.52.48,6.01,2.91,11.85,7.36,15.33,7.45,5.82,14.91,11.93,25.23,13.01,10.19,1.06,18.59-2.29,25.45-8.94,8.16-7.92,11.46-18.8,14.09-29.5,2.52-10.24.28-20.77-.11-31.15-.22-5.86-.81-5.84,5.17-4.33,7.1,1.79,14.42-1.32,16.84-7.15,2.09-5.03-.41-12.28-5.98-14.97-12.03-5.81-22.64-13.99-34.43-20.18-3.82-2-8.18-2.72-11.65-5.41-4.61-3.57-10.14-5.59-14.87-9.07-3.82-2.82-8.71-2.8-13.36-1.99-5.78,1-10.41,6.04-10.94,11.66-.43,4.53,2.66,8.59,7.97,11.22,4.69,2.31,9.18,5,14.12,7.72ZM593.58,386c6.74.21,12.39-.9,17.71-3.48,3.42-1.66,5.91-4.31,5.58-8.27-.34-4.01-2.85-6.75-6.84-7.77-8.05-2.06-16.32-2.35-24.51-2-6.7.29-13.48.97-20.14,1.5-6.3.5-11.61,2.42-16.82,5.05-5.96,3.01-6.31,9.97-.97,14.01,3.47,2.63,7.88,4.4,11.97,3.69,11.58-1.99,23.31-1.04,34.03-2.73Z"/>
        <path class="cls-6" d="M160.64,550.21c-9.32-7.02-16.46-16.16-24.17-24.75-1.96-2.19-.38-4.21,1.2-5.64,4.7-4.27,10.67-5.81,16.59-4.9,6.91,1.07,12.78,4.11,15,12.09,1.12,4.05,4.46,7.61,9.03,8.57,6.42,1.35,10.93-2.01,14.51-6.94,2.9-3.99,5.82-7.9,10.02-10.74,8.43-5.7,17.28-6.43,27.06-3.96,9.13,2.31,12.77,8.7,15.73,16.66,1.81,4.88,2.9,10.63,8.96,12.92,5.66,2.14,10.03-.73,14.14-3.56,2.12-1.46,3.65-4.1,4.82-6.68,6.18-13.57,19.83-18.16,33.82-12.5,8.38,3.39,11.46,9.37,12.27,17.51.8,8.09,11.23,14.9,18.2,11.13,3.14-1.7,5.09-5.84,5.8-9.79.98-5.45,1.97-10.75,5.74-15.24,5.37-6.39,12.56-8.15,20.16-7.8,6.78.31,12.95,2.85,18.14,7.82,3,2.87,7.51,3.19,11.53,4.25,7.24,1.92,14.31,4.32,21.97,4.42,14.27.19,27.3-3.89,39.97-10.15,10.72-5.3,22-9.46,32.72-14.77,9.12-4.52,17.96-9.69,26.59-15.11,5.02-3.15,10.05-5.98,15.77-7.53,6.66-1.81,11.23-6.98,16.8-10.53,1.69-1.08,3.24-2.42,5.35-2.61.48,2.82-.67,5.25-2.19,7.39-2.88,4.07-4.91,8.52-7.02,13.01-2.21,4.71-3.71,9.84-7.38,13.82-3.23,3.51-6.35,7.11-8.43,11.52-2.2,4.66-6.1,7.99-10.58,9.94-7.06,3.06-12.8,8.01-18.99,12.24-9.15,6.25-19.51,9.72-29.57,13.74-4.37,1.75-9.07,2.86-13.26,5.18-2.49,1.38-5.15,2.21-7.85,2.62-5.14.78-9.85,2.63-14.24,5.25-2.49,1.48-5.13,2.35-7.85,2.26-5.64-.19-10.58,1.76-15.46,4.17-2.19,1.08-4.33,2.38-6.96,1.88-5.76-1.09-11.29.24-16.88,1.44-7.79,1.67-15.67,2.76-23.47,4.48-8.5,1.87-17.36,2.07-26.04,3.16-1.82.23-3.45.94-5.38.16-4.79-1.93-9.88-1.91-14.98-2.31-9.58-.76-19.26.31-28.76-1.7-1.8-.38-3.62-.82-5.45-.9-16.49-.72-32.71-3.02-48.54-7.81-.88-.27-1.82-.62-2.69-.55-7.05.62-13.23-2.47-19.61-4.62-2.33-.79-4.68-1.45-7.05-2.09-8.29-2.24-16.63-4.31-24.89-6.58-7.53-2.07-14.66-5.58-21.95-8.48-.98-.39-1.77-.53-2.26.63Z"/>
        <path class="cls-6" d="M430.11,486.68c-13.37,8.89-27.53,4.36-41.55,2.96-6.07-.61-12.03-.7-18.09-2.5-10.57-3.14-19.16-8.31-25.9-17.14-5.85-7.67-17.36-6.88-23.26.69-3.02,3.88-4.62,8.29-6.05,12.77-1.21,3.78-3.52,5.76-7.08,7.14-6.59,2.55-12.76,4.88-20.22,1.96-5.94-2.32-8.77-6.2-10.38-11.75-2.4-8.27-7.13-12.04-14.8-11.75-5.23.19-11.06,4.85-12.89,10.94-4.29,14.26-14.92,14.73-24.99,11.64-4.11-1.26-7.81-4.06-11.5-6.45-4.04-2.62-3.74-7.58-5.14-11.46-2.87-7.98-9.35-11.75-17.13-8.78-3.89,1.48-7.48,4.13-8.67,7.92-3.08,9.8-10.32,13.03-19.44,13.99-3.76.4-7.35,1.47-11.36.26-3.57-1.07-6.14-4.16-10.08-4.08.09-1.84,1.42-2.63,2.41-3.29,13.98-9.36,25.29-21.77,37.37-33.24,17.03-16.17,35.75-29.91,56.59-40.59,9.81-5.03,20.52-7.61,31.78-7.03,3.06.16,6.15-.45,9.22-.43,9.56.06,18.27,3.68,27.25,6.39,19.93,6.01,36.18,18.37,53.13,29.65,7.44,4.95,15.03,9.76,22.45,14.71,12.79,8.53,25.75,16.94,37.45,27.07,3.95,3.41,8.28,6.29,10.87,10.41ZM264.76,415.2c-6.91.18-13.87-.57-20.67,1.62-6.88,2.22-8.75,5.38-8.73,12.42.02,5.97,3.56,9.55,6.76,13.69,5.81,7.5,12.27,12.83,22.71,12.37,10.45-.46,27.64-11.15,31.7-21.01,2.39-5.79.69-10.37-4.55-13.91-8.39-5.67-17.85-5.09-27.23-5.18Z"/>
        <path class="cls-5" d="M160.64,550.21c.49-1.17,1.28-1.03,2.26-.63,7.29,2.91,14.43,6.41,21.95,8.48,8.27,2.27,16.61,4.34,24.89,6.58,2.38.64,4.72,1.3,7.05,2.09,6.38,2.16,12.55,5.24,19.61,4.62.88-.08,1.82.28,2.69.55,15.83,4.8,32.05,7.09,48.54,7.81,1.83.08,3.65.52,5.45.9,9.49,2.02,19.18.95,28.76,1.7,5.09.4,10.18.38,14.98,2.31,1.93.78,3.57.07,5.38-.16,8.68-1.09,17.54-1.29,26.04-3.16,7.8-1.72,15.69-2.82,23.47-4.48,5.58-1.2,11.12-2.53,16.88-1.44,2.63.5,4.77-.8,6.96-1.88,4.88-2.41,9.82-4.37,15.46-4.17,2.72.09,5.36-.78,7.85-2.26,4.39-2.62,9.09-4.47,14.24-5.25,2.7-.41,5.37-1.24,7.85-2.62,4.18-2.32,8.89-3.43,13.26-5.18,10.06-4.02,20.42-7.49,29.57-13.74,6.2-4.23,11.94-9.18,18.99-12.24,4.48-1.94,8.39-5.28,10.58-9.94,2.08-4.41,5.2-8.01,8.43-11.52,3.66-3.98,5.17-9.11,7.38-13.82,2.11-4.49,4.13-8.94,7.02-13.01,1.52-2.14,2.67-4.57,2.19-7.39,4.68-2.17,8.43-5.46,12.1-9.1,6.03-5.97,14.1-9.49,20.07-15.59,4.12-4.21,8.68-7.37,14.5-8.62,7.82-1.68,15.62-3.52,23.46-5.13,1.45-.3,3.07.06,4.59.25,3.88.5,5,2.51,4.24,6.45-1.04,5.34-3.56,10.12-5.02,15.26-3.21,11.32-9.94,20.64-16.14,30.39-4.21,6.62-8.82,12.86-13.57,19.06-5.22,6.81-12.01,11.96-18.63,17.16-10.13,7.94-21.06,14.84-31.8,21.88-12.53,8.21-25.79,15.51-40.15,20.45-5.66,1.95-11.08,4.61-16.7,6.67-10.9,4.01-21.8,8.05-32.84,11.65-10.05,3.28-20.22,6.12-30.63,8.23-14.39,2.93-29.05,3.71-43.47,6.1-13.67,2.26-27.44,1.52-41.13,2.88-12.6,1.25-25.24-.39-37.8-1.78-17.15-1.89-34.18-4.72-51.27-7.04-12.51-1.7-24.92-5-36.78-9.96-8.9-3.72-18.47-5.88-27.21-9.89-12.1-5.56-24.13-11.56-33.55-21.47Z"/>
        <path class="cls-4" d="M453.72,348.17c7.15,4.45,9.92,11.85,13.96,18.59,4.24,7.08,5.91,14.7,6.26,22.26.36,7.93,1.9,15.85,1.34,23.74-.51,7.18-2.81,14.04-7.01,20.16-2.69,3.92-7.13,5.33-10.46,8.26-14.1,12.42-41.05,6.26-50.16-6.7-3.79-5.39-6.9-11.3-6.29-18.35.06-.72-.08-1.54-.37-2.21-2.7-6.19-1.34-12.82-2.24-19.16-.87-6.12.26-11.9.61-17.84.17-2.94,1.29-5.33,2.74-8.25-4.29,1.27-8.2,2.88-12.54,1.5-4.8-1.53-8.17-4.21-9.23-9.32-1.15-5.56,1.64-9.51,6.01-11.91,6.27-3.45,12.38-7.4,19.46-9.21,4.49-1.15,8.64-3.14,12.86-5.03,12.01-5.38,24.17-10.31,37.39-12.17,4.76-.67,9.34-2.72,13.97-4.25,6.89-2.28,15.31,1.18,17.88,7.42,2.66,6.44-1.29,14.07-8.39,15.84-8.02,2-16.1,3.77-24.14,5.68-.56.13-1.05.59-1.65.95ZM427.51,406.04c-1.42,4.55.83,8.29,1.82,11.97.8,2.96,3.97,5.85,7.81,5.15,3.21-.58,8.1-1.92,7.83-5.17-.6-7.23,2.82-13.68,2.16-21.01-.96-10.53-2.87-20.21-9.87-28.44-1.11-1.3-1.8-2.81-3.89-2.24-2.06.56-3.71,1.51-4.02,3.88-.23,1.8-.09,3.56-.68,5.41-2.76,8.59-3.91,17.33-1.59,26.28.38,1.46.32,3.04.43,4.18Z"/>
        <path class="cls-4" d="M130.98,340c-4.93-2.72-9.43-5.41-14.12-7.72-5.31-2.62-8.41-6.69-7.97-11.22.54-5.62,5.16-10.66,10.94-11.66,4.65-.8,9.54-.82,13.36,1.99,4.72,3.48,10.26,5.5,14.87,9.07,3.47,2.69,7.83,3.4,11.65,5.41,11.8,6.19,22.4,14.38,34.43,20.18,5.57,2.69,8.08,9.94,5.98,14.97-2.42,5.83-9.74,8.94-16.84,7.15-5.98-1.51-5.39-1.53-5.17,4.33.39,10.38,2.63,20.92.11,31.15-2.63,10.7-5.93,21.58-14.09,29.5-6.86,6.65-15.26,10-25.45,8.94-10.33-1.07-17.78-7.19-25.23-13.01-4.45-3.47-6.88-9.32-7.36-15.33-.26-3.23-.63-6.34-1.5-9.52-1.23-4.51.73-9.09.76-13.7.05-7.3,1.12-14.62,3.26-21.54,3.46-11.16,8.21-21.75,19.64-27.33.81-.39,1.54-.94,2.73-1.68ZM151.44,388.86c.28-9.42-1.4-16.56-5.24-23.18-1.34-2.31-4.67-3.41-5.75-1.64-1.19,1.95-2.43,3.98-3.07,6.15-3.07,10.34-4.99,20.95-5.28,31.7-.1,3.59-.34,8.23,3.47,10.82,2.32,1.58,4.95,3.24,7.61,3.6,1.63.22,2.26-2.87,3.29-4.5,4.8-7.61,3.73-16.43,4.97-22.95Z"/>
        <path class="cls-4" d="M593.58,386c-10.72,1.7-22.45.75-34.03,2.73-4.09.7-8.49-1.06-11.97-3.69-5.34-4.05-4.99-11,.97-14.01,5.21-2.63,10.52-4.55,16.82-5.05,6.67-.53,13.44-1.22,20.14-1.5,8.19-.35,16.46-.06,24.51,2,3.99,1.02,6.5,3.76,6.84,7.77.34,3.96-2.16,6.61-5.58,8.27-5.31,2.58-10.97,3.68-17.71,3.48Z"/>
        <path class="cls-1" d="M264.76,415.21c9.38.08,18.84-.5,27.23,5.17,5.24,3.54,6.93,8.12,4.55,13.91-4.06,9.85-21.25,20.55-31.7,21.01-10.44.46-16.91-4.87-22.71-12.37-3.21-4.14-6.75-7.72-6.76-13.69-.02-7.05,1.85-10.2,8.73-12.42,6.8-2.19,13.75-1.44,20.67-1.61Z"/>
        <path class="cls-3" d="M427.51,406.04c-.11-1.14-.05-2.71-.43-4.18-2.32-8.94-1.17-17.69,1.59-26.28.59-1.85.45-3.61.68-5.41.31-2.36,1.96-3.31,4.02-3.88,2.08-.57,2.78.94,3.89,2.24,7.01,8.23,8.92,17.91,9.87,28.44.67,7.33-2.76,13.78-2.16,21.01.27,3.25-4.62,4.59-7.83,5.17-3.84.7-7.02-2.19-7.81-5.15-.99-3.67-3.24-7.42-1.82-11.97Z"/>
        <path class="cls-3" d="M151.44,388.86c-1.23,6.51-.17,15.34-4.97,22.95-1.03,1.64-1.66,4.73-3.29,4.5-2.66-.36-5.29-2.02-7.61-3.6-3.81-2.59-3.56-7.23-3.47-10.82.29-10.75,2.21-21.36,5.28-31.7.64-2.17,1.88-4.2,3.07-6.15,1.08-1.77,4.41-.67,5.75,1.64,3.84,6.62,5.52,13.76,5.24,23.18Z"/>
      </g>
      <g>
        <path class="cls-7" d="M991.83,514.08l-47.03,1.6c-3.57,1.07-6.01,1.6-7.35,1.6s-3.65-.4-6.95-1.2c-3.3-.8-5.66-1.29-7.08-1.47-6.41-.71-13.18-3.38-20.31-8.02-7.31-4.81-11.76-10.42-13.36-16.83-.36-1.42-.93-3.56-1.74-6.41-.8-2.85-1.43-5.16-1.87-6.95-.45-1.78-.8-3.92-1.07-6.41-.27-2.49-.31-4.9-.13-7.21.89-11.58-.54-21.55-4.28-29.92-1.43-2.85-1.16-6.41.8-10.69,3.03-6.41,3.11-12.65.27-18.7-1.07-2.49-.98-5.97.27-10.42,2.67-7.84,3.21-15.14,1.6-21.91-.18-.53-.45-1.69-.8-3.47-.36-1.78-.63-3.03-.8-3.74-.18-.71-.36-1.82-.53-3.34-.18-1.51-.23-2.76-.13-3.74.09-.98.27-2.09.53-3.34.27-1.24.67-2.49,1.2-3.74.54-1.24.18-3.03-1.07-5.34-1.96-4.63-1.96-8.99,0-13.09,2.49-5.7,2.94-11.13,1.34-16.3-1.07-3.74-1.96-7.97-2.67-12.69-.71-4.72-1.11-8.42-1.2-11.09-.09-2.67-.23-7.17-.4-13.49-.18-6.32-.27-10.29-.27-11.89-.18-7.3-.27-18.44-.27-33.4,0-11.76-.98-19.86-2.94-24.31-1.07-2.14-1.16-3.92-.27-5.34,3.38-6.05,4.72-15.05,4.01-26.99-.53-8.73,2.23-17.28,8.28-25.65,6.05-8.55,13.98-14.52,23.78-17.9,10.15-3.38,19.15-5.08,26.99-5.08,13.53.18,33.75.27,60.65.27,7.12,0,13.45,1.07,18.97,3.21,3.03,1.25,6.59,1.87,10.69,1.87,7.12,0,16.03,2.23,26.72,6.68,26,10.51,47.83,22.18,65.46,35,7.84,5.52,13.89,12.38,18.17,20.57,2.85,5.34,8.02,12.82,15.5,22.44,5.34,6.77,9.17,15.05,11.49,24.85.35,1.78,1.07,4.41,2.14,7.88,1.07,3.47,1.87,6.1,2.4,7.88.53,1.96,1.64,5.48,3.34,10.55,1.69,5.08,2.85,9.44,3.47,13.09.62,3.65.75,7.35.4,11.09v2.67c.35,1.6,1.07,4.1,2.14,7.48,1.07,3.39,1.87,6.41,2.4,9.08.54,2.67.71,5.26.54,7.75-.36,1.78-.49,5.92-.4,12.42.09,6.5.13,10.65.13,12.42-.18,3.03-.23,5.79-.13,8.28.09,2.5.09,5.26,0,8.28-.09,3.03-.4,5.7-.93,8.02-.36,2.14-2.23,11.13-5.61,26.99-.18.71-.53,1.56-1.07,2.54-.54.98-.8,1.83-.8,2.54l-4.01,21.64c-2.85,3.57-6.33,9.18-10.42,16.83-4.1,7.66-7.21,13-9.35,16.03-6.95,10.33-16.39,19.06-28.32,26.18-5.7,3.39-9.44,5.97-11.22,7.75-2.32,2.32-4.86,4.19-7.62,5.61-2.76,1.43-6.28,2.9-10.55,4.41-4.28,1.52-7.13,2.63-8.55,3.34-3.39,0-6.73.4-10.02,1.2-3.3.8-7.44,2.1-12.42,3.87-4.99,1.78-8.2,2.85-9.62,3.21-7.84,2.32-15.05,3.47-21.64,3.47h-38.47v-.53ZM995.31,442.2v.53h22.18c4.81,0,8.37-.35,10.69-1.07,19.95-6.59,33.57-12.02,40.88-16.3,2.67-1.42,4.72-3.11,6.15-5.08,12.29-15.67,18.7-29.57,19.24-41.68.35-5.16,1.07-8.82,2.14-10.95.71-1.96,1.07-3.47,1.07-4.54s-.23-2.54-.67-4.41c-.45-1.87-.67-3.25-.67-4.14,0-1.24.44-3.07,1.34-5.48.89-2.4,1.34-4.14,1.34-5.21,1.07-6.59,1.47-13.89,1.2-21.91-.27-8.02-1.74-15.14-4.41-21.38-.18-3.74-.8-7.79-1.87-12.16-1.07-4.36-2-7.79-2.81-10.29-.8-2.49-2.18-6.45-4.14-11.89-1.96-5.43-3.21-8.95-3.74-10.55-5.17-15.14-13.54-25.47-25.12-30.99-.71-.35-6.14-3.83-16.3-10.42-8.55-5.52-17.1-8.55-25.65-9.08-1.43,0-4.68-.62-9.75-1.87-5.08-1.24-8.95-1.42-11.62-.53-2.85.89-6.59.58-11.22-.94-4.63-1.51-8.02-2.18-10.15-2-3.57.36-6.24.71-8.02,1.07-1.25.36-1.96.89-2.14,1.6-1.25,2.67-2.23,6.24-2.94,10.69-.71,4.45-.8,7.93-.27,10.42,1.24,5.52,1.69,12.83,1.34,21.91-.18,1.96-.58,4.72-1.2,8.28-.63,3.57-.94,6.24-.94,8.02-.18,1.78-.09,3.74.27,5.88.35,2.14.84,4.54,1.47,7.21.62,2.67,1.02,4.63,1.2,5.88.18.53.27,1.43.27,2.67.17,6.06.27,15.23.27,27.52,0,2.14.22,5.44.67,9.89.44,4.45.67,7.75.67,9.89s-.27,5.52-.8,10.15c-1.43,6.59-.98,12.92,1.34,18.97,1.07,2.67,1.74,5.34,2,8.02.27,2.67.31,6.37.13,11.09-.18,4.72-.27,7.44-.27,8.15-3.21,5.88-3.3,13.81-.27,23.78.89,2.67.27,6.24-1.87,10.69-.53,1.25-.89,2.5-1.07,3.74-.18,1.25-.05,2.63.4,4.14.44,1.52.8,2.58,1.07,3.21.27.63.94,1.83,2,3.61,1.07,1.78,1.69,2.85,1.87,3.21,1.07,1.78,4.45,2.67,10.15,2.67h16.57Z"/>
        <path class="cls-7" d="M1494.95,299.79c.53,1.78,1.47,4.59,2.81,8.42,1.34,3.83,2.36,7.21,3.07,10.15.71,2.94.98,5.92.8,8.95-.18,3.39-.31,6.95-.4,10.69-.09,3.74-.18,7.93-.27,12.56-.09,4.63-.13,8.2-.13,10.69,0,5.52-2.4,10.87-7.21,16.03-3.21,3.21-5.7,5.61-7.48,7.21-3.92,3.57-9.18,6.77-15.76,9.62-6.59,2.85-12.29,4.27-17.1,4.27l-59.85.8c-2.32.18-7.48-.18-15.5-1.07v-.8c-8.38.18-20.93.4-37.67.67-16.75.27-29.3.4-37.67.4-1.07,0-2.05.71-2.94,2.14-.89,1.43-1.07,2.58-.53,3.47.18.18.31.58.4,1.2.09.63.22,1.03.4,1.2,1.42,1.43,3.65,4.77,6.68,10.02,3.03,5.26,5.97,8.78,8.82,10.55,12.82,8.19,25.2,14.34,37.14,18.44,12.29,4.28,22.44,5.34,30.46,3.21,1.96-.53,5.17-1.29,9.62-2.27,4.45-.98,7.97-1.82,10.55-2.54,2.58-.71,5.65-1.82,9.22-3.34,3.56-1.51,6.68-3.25,9.35-5.21,5.7-4.27,13.98-6.41,24.85-6.41,6.59,0,13.09,2.05,19.5,6.15,10.33,6.24,15.23,14.7,14.7,25.38,0,1.78-.18,4.45-.53,8.02-.53,3.21-1.87,6.32-4.01,9.35-5.52,7.13-11.94,12.92-19.24,17.37-12.83,7.66-23.78,12.56-32.86,14.7-22.44,5.7-39.37,8.1-50.77,7.21-2.67-.18-5.34-.18-8.02,0-8.73.53-19.77-1.16-33.13-5.08-.71-.18-3.12-1.07-7.21-2.67-4.1-1.6-7.39-2.49-9.89-2.67l-4.81-1.6c-1.43-.35-2.23-.71-2.4-1.07-2.14-1.96-5.66-3.96-10.55-6.01-4.9-2.05-8.24-3.61-10.02-4.68-1.07-.71-2.9-1.78-5.48-3.21-2.58-1.42-4.5-2.58-5.75-3.47-2.67-1.78-5.34-3.83-8.02-6.15-3.92-3.56-9.62-8.91-17.1-16.03-14.61-13.53-24.94-34.02-30.99-61.45-.36-1.42-.67-4.58-.93-9.49-.27-4.9-.94-8.59-2-11.09-1.96-4.81-1.96-9.89,0-15.23,1.24-3.74,2.31-12.29,3.21-25.65.53-6.23,2.14-12.02,4.81-17.37,3.21-6.77,8.37-16.74,15.5-29.93,1.07-2.31,2.49-4.45,4.27-6.41,9.79-10.69,15.67-17.01,17.63-18.97,1.96-1.96,6.77-5.7,14.43-11.22,1.07-.89,2.81-2.05,5.21-3.47,2.41-1.42,4.23-2.58,5.48-3.47,11.93-8.19,23.07-12.83,33.4-13.89,1.24-.71,2.49-1.29,3.74-1.74,1.24-.44,2.58-.89,4.01-1.34,1.42-.44,2.63-.8,3.61-1.07.98-.27,2.36-.49,4.14-.67,1.78-.18,3.03-.31,3.74-.4.71-.09,2.09-.18,4.14-.27,2.05-.09,3.34-.13,3.87-.13s1.91-.04,4.14-.13c2.23-.09,3.52-.13,3.87-.13,3.92-.18,9.53-.18,16.83,0,7.3.18,12.11.27,14.43.27,11.93.18,25.2,3.65,39.81,10.42,18.52,8.37,33.93,19.24,46.22,32.6,1.07,1.07,2.63,2.58,4.68,4.54,2.05,1.96,3.61,3.47,4.68,4.54.53.71,1.64,1.96,3.34,3.74,1.69,1.78,2.94,3.12,3.74,4.01.8.89,1.74,2.18,2.81,3.87,1.07,1.7,1.78,3.34,2.14,4.94ZM1416.93,329.72c.71,0,1.42-.27,2.14-.8.71-.53,1.07-1.07,1.07-1.6.17-1.6-.45-3.11-1.87-4.54-6.41-6.95-17.81-14.52-34.2-22.71-1.07-.53-2.76-.8-5.08-.8h-18.17c-7.84-.53-16.03,1.6-24.58,6.41-.53.36-1.92,1.07-4.14,2.14-2.23,1.07-3.88,1.96-4.94,2.67-4.63,2.85-8.2,6.41-10.69,10.69-.53,1.43-.71,2.23-.53,2.4.17.71.8,1.25,1.87,1.6,1.6.53,3.21.85,4.81.94,1.6.09,3.51.05,5.74-.13,2.23-.18,3.78-.27,4.68-.27,7.48,0,12.65.63,15.5,1.87,5.34,2.5,11.13,2.58,17.37.27,6.77-2.49,13.54-2.49,20.31,0,7.12,2.67,17.37,3.3,30.73,1.87Z"/>
        <path class="cls-7" d="M1791.79,436.06c3.38,8.02,3.92,14.7,1.6,20.04-3.57,8.55-6.95,14.52-10.15,17.9-13.18,13.72-30.91,24.41-53.17,32.06-10.69,3.74-20.04,5.61-28.05,5.61-1.96,1.07-4.01,1.92-6.14,2.54-2.14.63-4.54,1.03-7.21,1.2-2.67.18-4.77.31-6.28.4-1.52.09-3.92.09-7.21,0-3.3-.09-5.48-.13-6.55-.13-3.92,0-9-.98-15.23-2.94-1.43-.53-3.65-1.29-6.68-2.27-3.03-.98-5.39-1.78-7.08-2.4-1.7-.62-3.87-1.2-6.55-1.74s-5.17-.89-7.48-1.07c-15.68-5.88-27.17-12.02-34.47-18.44-1.96-1.6-3.97-3.43-6.01-5.48-2.05-2.05-4.27-4.36-6.68-6.95-2.4-2.58-4.32-4.58-5.74-6.01-.71-.71-2.32-2.49-4.81-5.34-2.5-2.85-4.54-4.9-6.15-6.15-7.48-6.05-13-14.7-16.57-25.92-.71-1.96-1.83-4.81-3.34-8.55-1.52-3.74-2.54-6.59-3.07-8.55-4.46-15.14-6.15-27.79-5.08-37.94-.71-1.6-.85-4.36-.4-8.28.44-3.92.67-6.63.67-8.15s.49-4.14,1.47-7.88c.98-3.74,1.64-6.28,2-7.61.35-1.34,1.07-3.87,2.14-7.61,1.07-3.74,1.78-6.23,2.14-7.48,3.21-11.76,10.06-23.78,20.57-36.07,6.77-8.02,17.45-19.5,32.06-34.47,6.77-6.77,13.53-10.51,20.31-11.22,4.28-2.31,8.73-4.18,13.36-5.61,4.63-1.42,10.51-2.98,17.63-4.68,7.12-1.69,11.76-2.81,13.89-3.34,8.73-2.31,19.06-1.96,30.99,1.07,6.23,1.6,20.31,6.41,42.21,14.43,10.33,3.74,18.97,9.35,25.92,16.83,4.09,4.45,6.41,9.08,6.95,13.89.18.89.27,2.18.27,3.87s.09,2.98.27,3.87c1.24,12.12-3.47,21.82-14.16,29.12-3.21,2.32-5.44,3.65-6.68,4.01-14.25,2.67-25.38,2.05-33.4-1.87-9.8-4.98-17.01-7.92-21.64-8.82-4.28-2.67-9.35-4.14-15.23-4.41s-11.05.13-15.5,1.2c-7.48,1.25-13.63,4.37-18.44,9.35-6.95,7.31-11.31,12.65-13.09,16.03-1.43,2.67-3.65,6.37-6.68,11.09-3.03,4.72-4.9,7.71-5.61,8.95-1.78,2.67-2.76,5.17-2.94,7.48-2.5,22.8,1.42,41.06,11.76,54.77,1.96,2.5,3.29,4.63,4.01,6.41,1.78,4.45,5.43,8.02,10.96,10.69,2.14,1.07,5.16,2.85,9.08,5.34,2.14,1.43,4.58,2.67,7.35,3.74,2.76,1.07,5.12,1.87,7.08,2.4,1.96.53,4.58,1.2,7.88,2,3.29.8,5.74,1.38,7.35,1.74,3.21.89,6.59.71,10.15-.53,1.07-.35,3.03-1.02,5.88-2,2.85-.98,5.08-1.78,6.68-2.4,1.6-.62,3.52-1.47,5.74-2.54,2.23-1.07,4.14-2.23,5.75-3.47,1.96-1.42,4.18-2.89,6.68-4.41,2.49-1.51,4.68-2.71,6.55-3.61,1.87-.89,4.36-2.05,7.48-3.47,3.11-1.42,5.39-2.49,6.81-3.21,6.95-3.21,14.6-4.81,22.98-4.81,6.23,0,11.84,2.05,16.83,6.15,6.59,5.52,10.6,10.07,12.02,13.63Z"/>
        <path class="cls-7" d="M2052.3,284.29c.53,4.63.62,10.07.27,16.3-.36,4.1-1.78,7.39-4.27,9.89-.54.53-1.92,2.05-4.14,4.54-2.23,2.5-4.05,4.27-5.48,5.34-3.92,3.39-8.11,5.17-12.56,5.34-10.51.89-20.57.8-30.19-.27-3.57-.35-9.08-.53-16.57-.53-8.91-.18-16.48,1.47-22.71,4.94-6.24,3.47-12.83,9.04-19.77,16.7-1.43,1.6-3.47,4.05-6.14,7.35-2.67,3.3-4.72,5.74-6.15,7.35-3.57,3.74-5.44,7.84-5.61,12.29-.36,8.19-1.43,15.41-3.21,21.64-1.6,5.34-1.16,11.67,1.34,18.97,1.24,3.57,1.51,6.15.8,7.75-1.07,2.67-1.83,5.7-2.27,9.08-.45,3.39-.67,6.24-.67,8.55v17.9l-.8,24.85c-.18,4.45-2.05,8.55-5.61,12.29-4.28,4.27-7.57,7.39-9.89,9.35-3.21,2.67-6.59,4.1-10.15,4.27-1.43.18-3.65.31-6.68.4-3.03.09-5.34.23-6.95.4-13,1.25-23.96-4.1-32.86-16.03-1.96-2.67-3.65-5.88-5.08-9.62-2.32-6.41-3.65-10.78-4.01-13.09-.18-1.07.09-2.85.8-5.34.71-2.49.89-4.27.53-5.34-1.07-3.03-1.74-6.05-2-9.08-.27-3.03-.36-6.85-.27-11.49.09-4.63.13-7.75.13-9.35v-10.15c0-.89.09-2.4.27-4.54.17-2.14.53-3.96,1.07-5.48.53-1.51,1.16-2.98,1.87-4.41.18-.35.27-.8.27-1.34v-1.34c.53-1.96.31-4.94-.67-8.95-.98-4.01-1.03-7.26-.13-9.75.53-1.42.89-3.03,1.07-4.81.17-1.78.22-3.87.13-6.28-.09-2.4-.13-4.14-.13-5.21,0-1.42-.09-2.4-.27-2.94-1.07-2.67-1.87-5.56-2.4-8.68-.54-3.11-.85-6.05-.94-8.82-.09-2.76-.13-5.74-.13-8.95v-8.82c0-4.63.18-7.39.53-8.28,1.78-4.45,2.94-9.53,3.47-15.23.53-5.7.71-10.86.53-15.5-.18-4.63-.09-9.79.27-15.5.53-8.55,2.67-17.46,6.41-26.72,1.24-3.21,3.47-6.05,6.68-8.55,7.84-5.88,15.41-8.73,22.71-8.55,10.86.53,16.39.8,16.57.8,2.31.18,4.9,1.07,7.75,2.67,1.24.89,3.07,2.27,5.48,4.14,2.4,1.87,4.32,3.16,5.74,3.87,2.31,1.6,4.63,4.37,6.95,8.28.71,1.43,1.91,3.39,3.61,5.88,1.69,2.5,2.81,4.27,3.34,5.34.71-.18,3.07-.71,7.08-1.6,4.01-.89,6.99-1.78,8.95-2.67,5.7-2.49,11.93-4.01,18.7-4.54,4.1-.18,8.64-.89,13.63-2.14,20.13-4.45,41.32-1.07,63.59,10.15,5.7,3.03,10.86,8.2,15.5,15.5,1.42,2.5,2.31,5.08,2.67,7.75Z"/>
        <path class="cls-7" d="M2339.26,246.62c10.51,6.24,15.85,15.23,16.03,26.99.35,10.15-1.52,18.08-5.61,23.78-3.21,4.63-6.5,10.15-9.89,16.57-.89,1.96-2.05,4.77-3.47,8.42-1.43,3.65-2.32,5.84-2.67,6.55-1.07,2.5-2.32,4.99-3.74,7.48-.89,1.6-3.21,4.63-6.95,9.08-3.74,4.45-5.88,8.28-6.41,11.49-.36,2.32-.98,4.54-1.87,6.68-.89,2.14-2.14,4.68-3.74,7.61-1.6,2.94-2.67,4.94-3.21,6.01-.53,1.25-1.7,3.52-3.47,6.81-1.78,3.3-3.12,6.15-4.01,8.55-.89,2.4-1.52,4.86-1.87,7.35-1.07,1.96-3.25,6.41-6.55,13.36-3.3,6.95-6.37,12.12-9.22,15.5-1.07,1.25-2,2.63-2.81,4.14-.8,1.52-1.7,3.43-2.67,5.74-.98,2.32-1.65,3.92-2,4.81-1.6,3.39-4.01,8.02-7.21,13.89-3.21,5.88-5.97,11.31-8.28,16.3-2.32,4.99-4.1,9.89-5.34,14.7-4.1,5.34-8.64,14.25-13.63,26.72-1.07,2.49-2.27,5.12-3.61,7.88-1.34,2.76-2.85,5.83-4.54,9.22-1.7,3.38-2.99,5.97-3.88,7.75-.18.18-.36.53-.53,1.07-.18.53-.36.98-.53,1.34-3.39,4.98-6.95,10.78-10.69,17.37-3.74,6.59-6.5,11.58-8.28,14.96-1.78,3.38-4.99,9.75-9.62,19.1-4.63,9.35-7.31,14.83-8.02,16.43-2.5,4.81-4.99,8.64-7.48,11.49-7.31,8.73-16.83,13.63-28.59,14.7-15.14,1.42-27.61-3.21-37.41-13.89-4.1-4.27-6.24-9.18-6.41-14.7-.71-13.72,1.07-23.51,5.34-29.39,2.67-7.13,7.26-16.75,13.76-28.86,6.5-12.12,10.46-19.68,11.89-22.71,2.67-3.03,5.7-8.55,9.08-16.57,3.38-8.02,6.68-13.63,9.89-16.83.53-1.78,2.45-5.83,5.74-12.16,3.29-6.32,5.12-11.53,5.48-15.63-4.46-10.69-9.53-20.39-15.23-29.12-2.67-4.1-6.73-10.19-12.16-18.3-5.44-8.1-9.49-14.2-12.16-18.3-2.14-3.21-3.57-6.5-4.28-9.89-1.43-4.81-3.74-8.73-6.95-11.76-4.63-4.27-8.82-10.24-12.56-17.9-4.28-8.73-10.87-21.82-19.77-39.28-5.7-11.04-8.73-16.74-9.08-17.1-4.81-6.59-7.75-14.16-8.82-22.71-.18-.89-.58-2.27-1.2-4.14-.63-1.87-1.03-3.16-1.2-3.87-.36-1.6-.18-3.38.53-5.34,3.74-11.76,11.13-20.75,22.18-26.99,2.14-1.07,3.83-1.69,5.08-1.87,1.78-.18,4.18-.35,7.21-.53,3.03-.18,4.81-.27,5.34-.27.71,0,2.18.05,4.41.13,2.22.09,3.87.23,4.94.4,4.1.89,6.77,1.69,8.02,2.4,11.58,7.13,19.59,15.68,24.05,25.65,2.67,6.24,8.02,16.92,16.03,32.06.53,1.25,1.51,2.98,2.94,5.21,1.42,2.23,2.31,3.61,2.67,4.14,1.24,2.14,3.34,5.17,6.28,9.08,2.94,3.92,5.34,7.61,7.21,11.09,1.87,3.47,3.16,6.99,3.87,10.55,5.16,6.95,8.46,11.4,9.89,13.36.89,1.43,3.11,4.85,6.68,10.29,3.56,5.44,6.41,9.58,8.55,12.42.18.36.98.4,2.41.13,1.42-.27,2.22-.58,2.4-.94,7.3-13.53,11.76-22.53,13.36-26.99,1.07-3.21,2.89-7.57,5.48-13.09,2.58-5.52,4.32-9.53,5.21-12.02,2.31-6.23,6.68-13.18,13.09-20.84.54-.71,1.02-1.47,1.47-2.27.44-.8.89-1.69,1.34-2.67.44-.98.84-1.74,1.2-2.27,1.07-2.14,3.34-6.68,6.81-13.63s6.1-12.29,7.88-16.03c3.21-7.3,9.62-13.53,19.24-18.7,15.14-8.02,30.01-7.75,44.62.8Z"/>
        <path class="cls-7" d="M2648.13,329.45c.18,2.67,1.16,6.32,2.94,10.95,1.78,4.63,2.76,8.02,2.94,10.15.18,2.32-.09,5.97-.8,10.96-.18.71-.58,2.32-1.2,4.81-.63,2.5-.85,4.45-.67,5.88.18,5.34-.31,11.18-1.47,17.5-1.16,6.32-2.14,11.05-2.94,14.16-.8,3.12-2.81,8.95-6.01,17.5-3.21,8.55-4.99,13.36-5.34,14.43-3.21,9.08-8.38,17.73-15.5,25.92-7.31,8.37-13.63,13.63-18.97,15.76-4.27,4.1-9.44,7.75-15.5,10.96-6.06,3.21-11.22,5.57-15.5,7.08-4.28,1.52-10.25,3.43-17.9,5.74-15.68,4.81-31.98,7.04-48.9,6.68-2.5,0-5.12.05-7.88.13-2.76.09-5.84.23-9.22.4-3.39.18-5.97.27-7.75.27-1.25,0-2.4.63-3.47,1.87-1.07,1.25-1.6,2.4-1.6,3.47.17,4.45.22,13.85.13,28.19-.09,14.34.31,23.73,1.2,28.19.35,2.14.4,5.79.13,10.95-.27,5.16-.31,8.82-.13,10.95.35,5.88-1.07,13.09-4.28,21.64-4.28,11.22-12.02,18.34-23.25,21.38-.71.18-2.32.71-4.81,1.6-2.5.89-4.37,1.51-5.61,1.87-1.78.35-4.45.35-8.02,0-.53-.18-1.43-.53-2.67-1.07-1.25-.53-2.14-.8-2.67-.8-9.08-.89-17.46-5.97-25.12-15.23-3.39-4.27-5.17-8.46-5.34-12.56,0-2.5-.09-6.19-.27-11.09-.18-4.9-.27-8.6-.27-11.09-.18-4.99-.4-11.18-.67-18.57-.27-7.39-.49-13.49-.67-18.3h-.27c-.71-25.47-1.16-44.8-1.34-57.98,0-11.04.71-18.26,2.14-21.64.89-1.96,1.34-4.63,1.34-8.02v-36.07c0-14.6.62-24.58,1.87-29.92.71-3.21.89-11.49.53-24.85-.18-5.16-.49-13.45-.93-24.85-.45-11.4-.67-19.68-.67-24.85s.09-13.45.27-24.85c-.71-2.14-.93-5.39-.67-9.75.27-4.36.54-7.57.8-9.62.27-2.05.8-5.21,1.6-9.48s1.38-7.39,1.74-9.35c1.78-12.29,8.15-21.15,19.1-26.59,10.95-5.43,21.33-6.01,31.13-1.74,6.77,3.03,10.86,5.17,12.29,6.41,6.59,5.88,15.05,6.95,25.38,3.21,12.11-4.45,24.76-4.9,37.94-1.34,5.34,1.25,8.99,1.87,10.95,1.87,6.59-.18,15.58,1.52,26.99,5.08,11.4,3.57,18.34,5.61,20.84,6.15,3.03.53,7.12,2.67,12.29,6.41,11.04,7.66,19.86,15.68,26.45,24.05.71.89,2.49,3.12,5.34,6.68,2.85,3.57,4.81,6.06,5.88,7.48,1.07,1.43,2.63,3.61,4.68,6.55,2.05,2.94,3.65,5.7,4.81,8.28,1.16,2.58,2.18,5.21,3.07,7.88.18.53.76,2,1.74,4.41.98,2.4,1.56,4.32,1.74,5.74ZM2570.38,371.4c1.24-2.85,1.42-6.41.54-10.69-1.07-4.27-2.41-8.64-4.01-13.09-4.81-14.07-13.36-24.22-25.65-30.46-3.21-1.6-8.2-2.85-14.96-3.74-6.77-.89-11.58-1.96-14.43-3.21-1.96-.35-3.39-.44-4.28-.27-.89.18-2.32.71-4.27,1.6-1.96.89-3.39,1.43-4.28,1.6-1.78.36-4.23.76-7.35,1.2-3.12.45-5.21.76-6.28.94-2.85.53-4.9,1.47-6.15,2.81-1.25,1.34-1.96,3.43-2.14,6.28-.89,10.51-1.7,16.83-2.4,18.97-1.07,3.39-1.16,6.06-.27,8.02,1.6,3.57,2.67,7.44,3.21,11.62.53,4.19.76,8.91.67,14.16-.09,5.26.04,9.22.4,11.89.17,1.43-.09,3.3-.8,5.61-1.07,2.67-1.83,5.66-2.27,8.95-.45,3.3-.63,6.06-.53,8.28.09,2.23.31,5.39.67,9.48.35,4.1.53,6.95.53,8.55,0,1.25.58,2.45,1.74,3.61,1.16,1.16,2.27,1.74,3.34,1.74,5.88.36,12.02.63,18.44.8,2.49.71,5.43.76,8.82.13,3.38-.62,7.61-1.78,12.69-3.47,5.08-1.69,8.86-2.81,11.36-3.34,13.71-3.21,22.53-10.33,26.45-21.38.53-1.6,1.42-3.87,2.67-6.81,1.24-2.94,2.23-5.34,2.94-7.21.71-1.87,1.42-4.14,2.14-6.81.71-2.67,1.07-5.25,1.07-7.75,0-1.78.8-4.45,2.4-8.02Z"/>
        <path class="cls-7" d="M2878.71,443.27c3.21,7.31,3.65,14.43,1.34,21.38-3.21,9.44-8.11,17.1-14.7,22.98-11.05,9.62-25.92,18.53-44.62,26.72-2.14.89-4.81,1.51-8.02,1.87-1.25,0-3.07.09-5.48.27-2.41.18-4.23.27-5.48.27-9.26.35-15.36.31-18.3-.13-2.94-.45-8.51-2.27-16.7-5.48-17.99-6.77-32.42-14.6-43.28-23.51-7.48-6.23-13.18-14.43-17.1-24.58-.18-.18-.27-.62-.27-1.34s-.09-1.16-.27-1.34c-.71-2.14-1.92-5.39-3.61-9.75-1.7-4.36-3.07-8.24-4.14-11.62-1.07-3.38-1.87-6.68-2.4-9.89-.71-3.56-1.16-7.17-1.34-10.82-.18-3.65-.27-8.28-.27-13.89v-38.88h-.27v-49.43c0-9.26-.89-16.57-2.67-21.91-1.25-3.92-1.87-8.37-1.87-13.36-.36-23.15-.53-40.7-.53-52.64,0-26.89-.09-47.11-.27-60.65,0-6.59,1.42-12.73,4.27-18.44,5.16-10.51,14.7-16.83,28.59-18.97,3.56-.53,9.08-.62,16.57-.27,4.27.18,8.55,1.6,12.82,4.28,15.14,8.73,22.08,21.55,20.84,38.47-.18,2.14,0,15.05.53,38.74,0,2.32.84,4.23,2.54,5.74,1.69,1.52,3.87,2.27,6.55,2.27s7.48-.13,14.43-.4c6.95-.27,12.29-.31,16.03-.13,12.83.18,25.83,4.1,39.01,11.76,6.23,3.39,10.51,9.08,12.83,17.1,2.31,8.02,1.96,15.23-1.07,21.64-3.03,6.59-6.77,11.76-11.22,15.5-.18.18-.49.45-.94.8-.45.36-.85.63-1.2.8-.53.18-1.78.76-3.74,1.74-1.96.98-3.21,1.56-3.74,1.74-.53.18-1.78.71-3.74,1.6-1.96.89-3.21,1.38-3.74,1.47-.54.09-1.83.45-3.88,1.07-2.05.63-3.39.89-4.01.8-.63-.09-2,.05-4.14.4-2.14.36-3.57.27-4.28-.27-1.43-.18-3.39-.62-5.88-1.34-2.5-.71-4.1-1.16-4.81-1.34-3.57,1.78-8.82,2.76-15.76,2.94-6.95.18-11.67.53-14.16,1.07-2.5.71-3.47,1.96-2.94,3.74,1.07,3.74,1.74,7.97,2,12.69.27,4.72.27,8.95,0,12.69-.27,3.74-.23,8.02.13,12.82.18,1.78-.53,4.45-2.14,8.02-1.43,3.21-1.34,6.77.27,10.69,1.42,3.21,1.34,6.77-.27,10.69-2.67,6.77-3.21,12.12-1.6,16.03,1.07,2.67,1.91,5.66,2.54,8.95.62,3.3,1.02,6.01,1.2,8.15.18,2.14.35,5.34.53,9.62.18,4.27.36,7.13.53,8.55.71,8.37,5.08,14.96,13.09,19.77,3.38,2.14,6.95,2.23,10.69.27,1.6-.89,3.74-2.49,6.41-4.81,4.63-4.27,10.86-8.1,18.7-11.49,10.51-4.81,20.66-5.3,30.46-1.47,9.79,3.83,17.1,11.18,21.91,22.04Z"/>
      </g>
    </g>
  </g>
</svg>