<?xml version="1.0" encoding="UTF-8"?>
<svg id="Layer_2" data-name="Layer 2" xmlns="http://www.w3.org/2000/svg" viewBox="0 0 1171.54 227.23">
  <defs>
    <style>
      .cls-1 {
        fill: #242424;
      }

      .cls-1, .cls-2, .cls-3, .cls-4, .cls-5, .cls-6, .cls-7 {
        stroke-width: 0px;
      }

      .cls-2 {
        fill: #8fcef0;
      }

      .cls-3 {
        fill: #fefefe;
      }

      .cls-4 {
        fill: #232424;
      }

      .cls-5 {
        fill: #e5dec6;
      }

      .cls-6 {
        fill: #fcf4da;
      }

      .cls-7 {
        fill: #fff;
      }
    </style>
  </defs>
  <g id="Layer_1-2" data-name="Layer 1">
    <g>
      <g>
        <path class="cls-1" d="M0,132.48c1.22-1.97,3.21-2.41,5.28-2.52,2.83-.15,5.67-.28,8.51-.14,1.21.06,2.4.08,3.58.39,1.95.51,2.38.35,2.83-1.57.87-3.69,2.09-7.27,2.84-11.01,1.59-7.91,3.37-15.8,6.62-23.25.39-.89.81-1.77,1.24-2.65,1.1-2.28,2.63-2.82,5.06-1.78,1.42.94,2.31,2.36,2.34,3.95.02,1.3-.46,2.74-1.1,3.91-1.64,3.02-2.11,6.39-2.86,9.62-.83,3.6-.92,7.38-2.63,10.78-.07.14-.14.33-.11.47.57,2.61-1.28,4.73-1.41,7.21-.09,1.58-1.01,3.02-1.2,4.54-.43,3.46-.52,6.96-.73,10.44-.06.94-.11,1.86-.23,2.8-.32,2.42-.36,5.05.47,7.19,1.01,2.6,1.39,5.35,2.55,7.93,1.68,3.73,4.02,6.75,7.03,9.47,3.48,3.15,6.28,2.16,9.18.06,3.12-2.26,6.04-4.78,8.73-7.59,2.32-2.43,5.15-4.38,7.48-6.78,2.53-2.6,5.26-4.94,8.25-6.85,4.95-3.17,9.82-6.46,15.56-8.3,4.39-1.41,8.81-1.59,13.23-1.41,3.95.16,7.79,1.3,11.58,2.61,4.54,1.57,8.85,3.65,12.68,6.37,5.58,3.97,11.44,7.51,17,11.5,4.08,2.93,8.4,5.54,12.16,8.92.84.76,1.67,1.7,2.85,1.94,5.99,1.21,11.94,2.5,18.15,2.08,6.08-.41,11.77-1.77,16.86-5.26.76-.52,1.8-.74,2.42-1.38,3.27-3.38,7.43-5.43,11.31-7.9.36-.23.94-.37.83-.89-.1-.47-.72-.38-1.09-.57-.27-.14-.65-.06-.98-.06-2.5-.05-4.87-.78-7.19-1.59-1.3-.46-2.22-1.39-2.29-2.92-.07-1.55.85-2.45,2.1-3.04.68-.32,1.46-.61,2.19-.59,4.88.12,9.72.74,14.45,1.91,1.34.33,2.18.09,3.09-.79,1.38-1.34,2.8-2.63,4.24-3.91,1.65-1.47,3.56-2.56,4.88-4.48,1.67-2.43,3.81-4.5,6.32-6.12.46-.3.86-.75.9-1.34.1-1.52.32-3,.25-4.56-.08-1.79-.69-3.68.18-5.46.17-.35.27-.73.12-1.12-.88-2.31-.65-4.75-.82-7.14-.04-.62.49-1.11.21-1.77-1.37-3.17-.7-6.61-1.32-9.9-.55-2.91-.73-5.93-1.6-8.74-1.15-3.69.38-5.09,2.69-6.23,3.63-.23,5.56,1.11,6.05,4.68.34,2.45,1.17,4.77,1.55,7.19.57,3.54,1.4,7.03,1.55,10.65.08,1.89.99,3.71.78,5.71-.46,4.5.72,8.98.33,13.48-.26,3.09-.37,6.16-.3,9.26.04,1.88-1.15,3.49-1.56,5.3-.96,4.28-2.15,8.5-3.45,12.69-.05.16-.05.34-.13.47-1.95,3.02-2.36,6.61-3.7,9.86-1.45,3.51-2.66,7.17-4.66,10.37-3.73,5.97-7.74,11.76-13.91,15.63-2,1.25-3.77,2.89-5.64,4.35-2.01,1.57-4.36,2.69-6.49,4.12-2.92,1.95-5.99,3.64-9.04,5.35-1.67.93-3.35,1.84-5.18,2.47-1.72.59-3.38,1.31-5.05,2.04-3.93,1.74-8.07,2.89-12.14,4.22-4.4,1.44-8.92,2.36-13.35,3.63-3.93,1.13-8,1.49-12,2.2-4.06.73-8.12,1.5-12.22,1.86-2.72.23-5.42,1.1-8.21.52-.84-.18-1.74-.11-2.59.27-.48.21-1.07.32-1.59.27-3.86-.33-7.75-.28-11.6-.8-2.44-.33-4.88-.48-7.31-1.04-2.98-.69-6.11-.7-9.14-1.19-2.5-.41-4.92-1.25-7.42-1.64-4.38-.7-8.51-2.22-12.74-3.44-3.73-1.08-7.03-3.07-10.45-4.85-3.49-1.82-6.13-4.64-9.29-6.82-1.55-1.07-2.59-2.67-3.9-3.99-3.3-3.31-6.27-6.95-9.37-10.46-.26-.29-.45-.64-.74-.9-3.08-2.7-5.19-6.33-8.32-8.95-2.51-2.09-4.12-4.92-6.36-7.21-.55-.56-.92-1.37-1.18-2.13-1.15-3.36-3.31-6.31-3.51-10.08-.09-1.77-.44-3.57-.44-5.37,0-1.08-.47-1.41-1.42-1.24-3.59.66-7.22,1.09-10.79,1.85-1.97.42-3.97.31-5.45-1.45-1.37-1.63-1.04-3.71.82-4.72,2.53-1.38,5.31-1.87,8.11-2.33,2.35-.38,4.68-.82,7.05-.94.57-.03.72-.26.74-.81.07-2.01.17-4.02.3-6.03.04-.59-.04-.85-.75-.93-2.08-.22-4.19-.15-6.25-.37-2.65-.28-5.32-.19-7.95-.77-1.86-.41-3.28-1.26-4.33-2.8v-1.66ZM57.47,197.16c3.37,3.54,7.67,5.69,12,7.68,3.13,1.44,6.55,2.21,9.73,3.54,4.24,1.78,8.68,2.96,13.16,3.56,6.11.83,12.21,1.84,18.34,2.52,4.5.5,9.02,1.08,13.52.63,4.9-.48,9.82-.22,14.71-1.03,5.16-.85,10.4-1.14,15.55-2.18,3.72-.76,7.36-1.77,10.96-2.94,3.95-1.29,7.85-2.74,11.75-4.17,2.01-.74,3.95-1.69,5.97-2.39,5.13-1.77,9.88-4.38,14.36-7.31,3.84-2.52,7.75-4.99,11.37-7.83,2.37-1.86,4.8-3.7,6.67-6.14,1.7-2.22,3.35-4.45,4.85-6.82,2.22-3.49,4.62-6.82,5.77-10.87.52-1.84,1.43-3.55,1.8-5.46.27-1.41-.13-2.13-1.52-2.31-.54-.07-1.12-.2-1.64-.09-2.8.58-5.59,1.23-8.39,1.84-2.08.45-3.71,1.58-5.19,3.08-2.14,2.18-5.02,3.44-7.18,5.58-1.32,1.3-2.65,2.48-4.33,3.26-.76.07-1.31.55-1.91.94-1.99,1.27-3.63,3.12-6.01,3.77-2.04.56-3.84,1.57-5.64,2.69-3.09,1.94-6.25,3.79-9.51,5.4-3.83,1.9-7.87,3.39-11.7,5.28-4.53,2.24-9.19,3.7-14.3,3.63-2.74-.04-5.27-.9-7.86-1.58-1.44-.38-3.05-.49-4.13-1.52-1.86-1.78-4.06-2.69-6.49-2.8-2.72-.12-5.29.5-7.21,2.79-1.35,1.61-1.7,3.5-2.05,5.45-.25,1.41-.95,2.9-2.07,3.5-2.49,1.35-6.22-1.09-6.51-3.98-.29-2.91-1.39-5.05-4.39-6.26-5-2.02-9.89-.38-12.1,4.47-.42.92-.97,1.87-1.73,2.39-1.47,1.01-3.03,2.04-5.06,1.27-2.17-.82-2.56-2.88-3.21-4.62-1.06-2.85-2.36-5.13-5.63-5.96-3.5-.89-6.66-.62-9.68,1.42-1.5,1.01-2.54,2.41-3.58,3.84-1.28,1.76-2.9,2.96-5.19,2.48-1.63-.34-2.83-1.62-3.23-3.07-.79-2.86-2.89-3.94-5.37-4.33-2.12-.33-4.25.22-5.93,1.75-.57.51-1.13,1.24-.43,2.02,2.76,3.07,5.31,6.34,8.65,8.85ZM153.86,174.44c-.92-1.47-2.48-2.5-3.89-3.73-4.19-3.62-8.82-6.63-13.4-9.68-2.65-1.77-5.37-3.49-8.03-5.26-6.07-4.04-11.88-8.45-19.01-10.6-3.21-.97-6.33-2.27-9.75-2.29-1.1,0-2.2.21-3.3.15-4.03-.21-7.86.71-11.37,2.51-7.45,3.82-14.15,8.74-20.24,14.52-4.32,4.1-8.37,8.54-13.37,11.89-.35.24-.83.52-.86,1.18,1.41-.03,2.33,1.08,3.61,1.46,1.44.43,2.72.05,4.07-.09,3.26-.34,5.85-1.5,6.95-5,.43-1.35,1.71-2.3,3.1-2.83,2.78-1.06,5.1.29,6.13,3.14.5,1.39.39,3.16,1.84,4.1,1.32.86,2.64,1.86,4.12,2.31,3.6,1.1,7.41.94,8.94-4.17.65-2.18,2.74-3.84,4.61-3.91,2.74-.1,4.44,1.25,5.29,4.2.58,1.99,1.59,3.37,3.71,4.2,2.67,1.04,4.87.21,7.23-.7,1.27-.49,2.1-1.2,2.53-2.55.51-1.6,1.08-3.18,2.17-4.57,2.11-2.71,6.23-2.99,8.32-.25,2.41,3.16,5.48,5.01,9.26,6.13,2.17.64,4.3.68,6.47.89,5.02.5,10.08,2.12,14.86-1.06Z"/>
        <path class="cls-4" d="M37.25,82.27c-3.08.71-5.86-1.26-6.29-4.57-.72-5.66-.88-11.36-.64-17.04.21-4.92.85-9.81,1.35-14.71.06-.64.37-1.26.59-1.88.58-1.68,1.44-3.28,1.29-5.15-.26-3.03,1.28-5.58,2.18-8.32.57-1.73,1.33-3.44,1.54-5.29.12-1.01.9-1.73,1.31-2.62,2.2-4.75,5.01-9.22,9.66-11.71,4.08-2.18,8.18-4.66,13.28-4.39,2.85.15,5.59,1.02,8.48.86,1.16-.07,2.43.63,3.54,1.19,2.44,1.24,5.2,1.61,7.5,3.41,1.87,1.46,4.33,2.22,6.09,3.98.47.47,1.2.81,1.41,1.37.63,1.66,1.97,2.73,3.24,3.68,1.71,1.28,2.62,3.06,3.79,4.67,3.48,4.79,7.11,9.49,10.21,14.51,1.68,2.72,3.11,5.68,4.48,8.6.77,1.64,2.08,2.8,3.07,4.22.61.88.5,2.45,1.73,2.6,1.01.12,2.1-.47,3.16-.73,2.51-.62,5.07-.91,7.65-1,1.04-.04,2.11-.13,3.12-.37,3.09-.74,6.19-1.26,9.33-.55,2.13.48,4.37-.26,6.48.81.7.36.91-.79,1.09-1.34.83-2.52,1.54-5.09,2.37-7.62.9-2.77,1.68-5.58,2.49-8.36,1.2-4.15,3.11-8.02,4.34-12.16,1.24-4.19,3.55-7.97,6.07-11.63,1.9-2.76,4.21-5.01,6.6-7.23,2.24-2.08,5.14-2.93,7.99-3.77,1.48-.44,2.96-.87,4.41-1.39h1.33c1.19.89,2.69.92,3.99.95,3.1.06,5.77,1.55,8.66,2.16,5.32,1.13,8.84,4.94,12.56,8.25,2.43,2.16,4.76,4.69,6.39,7.75,1.38,2.59,2.95,5.08,4.24,7.73.52,1.08,1.65,1.62,2.2,2.66,1.56,2.93,3.02,5.88,3.67,9.19.29,1.47,1.06,2.9,1.75,4.21,1.4,2.67,1.89,5.58,2.59,8.39.53,2.12,1.66,4.02,1.94,6.2.39,3.01,1.88,5.73,1.88,8.9,0,2.2.54,4.51,1.31,6.67.82,2.33-.32,3.85-2.07,5.13-2.26.36-4.14-.16-5.37-2.26-1.4-2.39-1.92-5.13-2.29-7.74-.31-2.21-.89-4.41-1.48-6.45-1.3-4.47-2.69-8.94-4.31-13.34-1.6-4.33-3.05-8.71-4.72-13.03-1.11-2.85-2.13-5.8-3.85-8.25-2.33-3.33-4.38-6.9-7.64-9.58-2.33-1.92-4.66-3.84-7.07-5.65-1.5-1.13-3.05-2.13-4.99-2.19-.58-.02-1.04-.32-1.57-.41-1.93-.32-3.56-1.76-5.82-1.06-1.4.43-2.67,1.37-4.17,1.38-1.89.02-3.44,1.22-4.55,2.21-2.1,1.89-3.68,4.42-5.14,6.91-1.51,2.58-2.34,5.52-3.81,8.07-1.64,2.86-1.97,6.07-3.05,9.06-1.27,3.54-2.66,7.12-3.48,10.86-.62,2.87-1.62,5.67-2.62,8.44-.7,1.96-.33,4.07-1.06,6.02-.62,1.68-1.04,3.43-1.59,5.14-.81,2.53-3.92,3.98-6.42,3.01-2.64-1.02-3.43-3.15-2.27-6.02.31-.76.57-1.54.78-2.34.14-.53.03-1.01-.67-1.06-1.6-.11-3.2-.4-4.79-.31-4.24.25-8.4,1.24-12.68,1.39-3.97.14-7.71,1.79-11.58,2.69-2.03.47-3.82,1.57-5.73,2.33-4.56,1.82-8.97,3.86-13.04,6.63-1.93,1.31-5.36.7-6.48-.95-1.15-1.69-.67-4.39,1.17-5.7,1.46-1.04,3-2.05,4.64-2.73,3.49-1.45,6.68-3.59,10.68-4.45-1.34-1.49-1.84-3.12-2.62-4.61-1.66-3.14-3.81-6-5.41-9.19-1.48-2.96-3.59-5.51-5.43-8.24-1.86-2.76-3.74-5.5-5.73-8.18-1.41-1.9-3.26-3.33-4.81-5.05-1.34-1.48-2.88-2.76-4.45-3.8-3.47-2.29-7.51-3.45-11.55-4.29-2.52-.53-5.24-.6-7.7.21-3.72,1.23-6.55,3.95-8.99,6.87-2.49,2.98-4.03,6.64-4.88,10.41-1.08,4.82-2.16,9.64-2.91,14.53-.87,5.64-1.21,11.3-1.23,16.98-.01,3.92-.13,7.85.27,11.78.31,3.04-.81,4.89-2.93,5.69Z"/>
        <path class="cls-2" d="M37.25,82.27c2.12-.8,3.23-2.65,2.93-5.69-.39-3.93-.28-7.85-.27-11.78.02-5.68.37-11.34,1.23-16.98.75-4.89,1.84-9.72,2.91-14.53.84-3.78,2.39-7.43,4.88-10.41,2.44-2.92,5.27-5.64,8.99-6.87,2.46-.81,5.18-.74,7.7-.21,4.04.84,8.09,2,11.55,4.29,1.57,1.04,3.11,2.32,4.45,3.8,1.55,1.72,3.4,3.14,4.81,5.05,1.98,2.68,3.86,5.42,5.73,8.18,1.84,2.73,3.95,5.29,5.43,8.24,1.6,3.19,3.75,6.05,5.41,9.19.78,1.48,1.29,3.11,2.62,4.61-4,.86-7.19,3-10.68,4.45-1.64.68-3.18,1.69-4.64,2.73-1.84,1.31-2.32,4.01-1.17,5.7,1.12,1.64,4.55,2.26,6.48.95,4.07-2.77,8.48-4.81,13.04-6.63,1.91-.76,3.7-1.85,5.73-2.33,3.86-.9,7.61-2.55,11.58-2.69,4.28-.15,8.44-1.14,12.68-1.39,1.58-.09,3.19.2,4.79.31.7.05.81.52.67,1.06-.21.79-.47,1.58-.78,2.34-1.17,2.86-.38,4.99,2.27,6.02,2.5.97,5.61-.47,6.42-3.01.55-1.71.96-3.46,1.59-5.14.73-1.95.35-4.06,1.06-6.02.99-2.77,1.99-5.57,2.62-8.44.81-3.74,2.2-7.32,3.48-10.86,1.07-2.98,1.41-6.2,3.05-9.06,1.47-2.56,2.3-5.5,3.81-8.07,1.46-2.49,3.04-5.02,5.14-6.91,1.11-.99,2.66-2.19,4.55-2.21,1.5-.02,2.77-.95,4.17-1.38,2.26-.7,3.89.74,5.82,1.06.53.09,1,.39,1.57.41,1.94.07,3.49,1.07,4.99,2.19,2.41,1.82,4.74,3.74,7.07,5.65,3.26,2.68,5.31,6.25,7.64,9.58,1.72,2.45,2.74,5.4,3.85,8.25,1.68,4.31,3.13,8.69,4.72,13.03,1.62,4.39,3.01,8.87,4.31,13.34.59,2.03,1.16,4.24,1.48,6.45.37,2.62.89,5.35,2.29,7.74,1.23,2.1,3.12,2.62,5.37,2.26.14,2.95,1.06,5.71,2.06,8.44-2.3,1.14-3.84,2.55-2.69,6.23.88,2.8,1.05,5.83,1.6,8.74.62,3.29-.05,6.74,1.32,9.9.28.65-.25,1.15-.21,1.77.16,2.39-.06,4.83.82,7.14.15.39.05.78-.12,1.12-.87,1.79-.26,3.68-.18,5.46.07,1.56-.16,3.05-.25,4.56-.04.59-.44,1.05-.9,1.34-2.52,1.62-4.66,3.69-6.32,6.12-1.32,1.92-3.23,3.01-4.88,4.48-1.44,1.28-2.86,2.57-4.24,3.91-.91.88-1.75,1.12-3.09.79-4.73-1.17-9.57-1.79-14.45-1.91-.73-.02-1.51.27-2.19.59-1.25.59-2.17,1.49-2.1,3.04.07,1.53.99,2.46,2.29,2.92,2.32.82,4.69,1.54,7.19,1.59.33,0,.71-.07.98.06.37.19,1,.09,1.09.57.1.52-.47.67-.83.89-3.88,2.47-8.05,4.52-11.31,7.9-.62.64-1.65.85-2.42,1.38-5.08,3.49-10.77,4.85-16.86,5.26-6.21.42-12.17-.87-18.15-2.08-1.17-.24-2.01-1.18-2.85-1.94-3.76-3.38-8.07-5.99-12.16-8.92-5.56-3.99-11.42-7.53-17-11.5-3.83-2.72-8.14-4.8-12.68-6.37-3.8-1.31-7.64-2.45-11.58-2.61-4.42-.18-8.85,0-13.23,1.41-5.74,1.84-10.61,5.13-15.56,8.3-2.99,1.92-5.72,4.25-8.25,6.85-2.33,2.4-5.15,4.34-7.48,6.78-2.68,2.81-5.61,5.33-8.73,7.59-2.9,2.11-5.7,3.1-9.18-.06-3.01-2.72-5.34-5.74-7.03-9.47-1.16-2.57-1.54-5.33-2.55-7.93-.83-2.15-.79-4.77-.47-7.19.12-.94.18-1.86.23-2.8.21-3.48.3-6.98.73-10.44.19-1.52,1.11-2.95,1.2-4.54.14-2.47,1.98-4.6,1.41-7.21-.03-.14.04-.33.11-.47,1.71-3.4,1.79-7.18,2.63-10.78.75-3.24,1.22-6.6,2.86-9.62.64-1.17,1.12-2.61,1.1-3.91-.03-1.59-.92-3.01-2.34-3.95,1.2-1.56.97-3.48,1.3-5.25.14-.79.01-1.63,0-2.44ZM162.31,124.89c.22-.13.39-.29.59-.34,2.88-.68,5.77-1.31,8.64-2.03,2.54-.63,3.95-3.36,3-5.67-.92-2.23-3.93-3.47-6.4-2.65-1.66.55-3.29,1.28-5,1.52-4.73.67-9.08,2.43-13.37,4.35-1.51.68-2.99,1.39-4.6,1.8-2.53.65-4.72,2.06-6.96,3.29-1.56.86-2.56,2.27-2.15,4.26.38,1.83,1.58,2.79,3.3,3.33,1.55.49,2.95-.08,4.48-.54-.52,1.05-.92,1.9-.98,2.95-.13,2.13-.53,4.19-.22,6.38.32,2.27-.17,4.64.8,6.85.1.24.16.53.13.79-.22,2.52.89,4.64,2.25,6.57,3.26,4.64,12.9,6.84,17.94,2.4,1.19-1.05,2.78-1.55,3.74-2.96,1.5-2.19,2.33-4.65,2.51-7.21.2-2.82-.35-5.66-.48-8.49-.12-2.7-.72-5.43-2.24-7.96-1.45-2.41-2.44-5.06-5-6.65ZM46.85,121.96c-.43.26-.69.46-.98.6-4.09,2-5.79,5.78-7.03,9.78-.77,2.47-1.15,5.09-1.17,7.7-.01,1.65-.71,3.29-.27,4.9.31,1.14.44,2.25.54,3.4.17,2.15,1.04,4.24,2.63,5.48,2.67,2.08,5.33,4.27,9.03,4.65,3.65.38,6.65-.82,9.1-3.2,2.92-2.83,4.1-6.72,5.04-10.55.9-3.66.1-7.43-.04-11.14-.08-2.1-.29-2.09,1.85-1.55,2.54.64,5.16-.47,6.03-2.56.75-1.8-.15-4.39-2.14-5.36-4.3-2.08-8.1-5-12.32-7.22-1.37-.72-2.93-.97-4.17-1.93-1.65-1.28-3.63-2-5.32-3.24-1.37-1.01-3.12-1-4.78-.71-2.07.36-3.72,2.16-3.91,4.17-.15,1.62.95,3.07,2.85,4.01,1.68.83,3.29,1.79,5.05,2.76ZM212.34,138.42c2.41.07,4.43-.32,6.33-1.24,1.22-.59,2.11-1.54,1.99-2.96-.12-1.44-1.02-2.42-2.45-2.78-2.88-.74-5.84-.84-8.77-.72-2.4.1-4.82.35-7.21.54-2.25.18-4.15.86-6.02,1.81-2.13,1.08-2.26,3.57-.35,5.01,1.24.94,2.82,1.57,4.28,1.32,4.14-.71,8.34-.37,12.17-.98Z"/>
        <path class="cls-6" d="M57.47,197.16c-3.33-2.51-5.89-5.78-8.65-8.85-.7-.78-.14-1.5.43-2.02,1.68-1.53,3.82-2.08,5.93-1.75,2.47.38,4.57,1.47,5.37,4.33.4,1.45,1.59,2.72,3.23,3.07,2.3.48,3.91-.72,5.19-2.48,1.04-1.43,2.08-2.83,3.58-3.84,3.02-2.04,6.18-2.3,9.68-1.42,3.26.83,4.57,3.11,5.63,5.96.65,1.74,1.04,3.8,3.21,4.62,2.03.77,3.59-.26,5.06-1.27.76-.52,1.31-1.47,1.73-2.39,2.21-4.86,7.1-6.5,12.1-4.47,3,1.21,4.1,3.35,4.39,6.26.29,2.9,4.02,5.33,6.51,3.98,1.12-.61,1.82-2.09,2.07-3.5.35-1.95.7-3.84,2.05-5.45,1.92-2.29,4.49-2.92,7.21-2.79,2.43.11,4.63,1.02,6.49,2.8,1.07,1.03,2.69,1.14,4.13,1.52,2.59.69,5.12,1.55,7.86,1.58,5.11.07,9.76-1.39,14.3-3.63,3.84-1.9,7.87-3.38,11.7-5.28,3.26-1.62,6.43-3.47,9.51-5.4,1.8-1.13,3.6-2.14,5.64-2.69,2.38-.65,4.02-2.5,6.01-3.77.61-.39,1.16-.87,1.91-.94.17,1.01-.24,1.88-.78,2.64-1.03,1.45-1.76,3.05-2.51,4.65-.79,1.68-1.33,3.52-2.64,4.94-1.16,1.26-2.27,2.54-3.02,4.12-.79,1.67-2.18,2.86-3.79,3.55-2.53,1.1-4.58,2.87-6.79,4.38-3.27,2.24-6.98,3.48-10.58,4.92-1.56.62-3.25,1.02-4.74,1.85-.89.49-1.84.79-2.81.94-1.84.28-3.52.94-5.09,1.88-.89.53-1.83.84-2.81.81-2.02-.07-3.79.63-5.53,1.49-.78.39-1.55.85-2.49.67-2.06-.39-4.04.09-6.04.51-2.79.6-5.61.99-8.4,1.6-3.04.67-6.21.74-9.31,1.13-.65.08-1.23.33-1.92.06-1.71-.69-3.54-.68-5.36-.83-3.43-.27-6.89.11-10.29-.61-.64-.14-1.3-.29-1.95-.32-5.9-.26-11.7-1.08-17.36-2.8-.31-.1-.65-.22-.96-.2-2.52.22-4.73-.88-7.01-1.65-.83-.28-1.67-.52-2.52-.75-2.96-.8-5.95-1.54-8.9-2.36-2.69-.74-5.24-1.99-7.85-3.03-.35-.14-.63-.19-.81.23Z"/>
        <path class="cls-6" d="M153.86,174.44c-4.78,3.18-9.85,1.56-14.86,1.06-2.17-.22-4.3-.25-6.47-.89-3.78-1.12-6.86-2.97-9.26-6.13-2.09-2.74-6.21-2.46-8.32.25-1.08,1.39-1.65,2.97-2.17,4.57-.43,1.35-1.26,2.06-2.53,2.55-2.36.91-4.56,1.75-7.23.7-2.13-.83-3.14-2.22-3.71-4.2-.86-2.96-2.55-4.31-5.29-4.2-1.87.07-3.96,1.74-4.61,3.91-1.53,5.1-5.34,5.27-8.94,4.17-1.47-.45-2.79-1.45-4.12-2.31-1.45-.94-1.34-2.71-1.84-4.1-1.03-2.86-3.34-4.2-6.13-3.14-1.39.53-2.68,1.48-3.1,2.83-1.1,3.51-3.69,4.66-6.95,5-1.35.14-2.63.53-4.07.09-1.28-.38-2.19-1.49-3.61-1.46.03-.66.51-.94.86-1.18,5-3.35,9.05-7.79,13.37-11.89,6.09-5.78,12.79-10.7,20.24-14.52,3.51-1.8,7.34-2.72,11.37-2.51,1.09.06,2.2-.16,3.3-.15,3.42.02,6.54,1.32,9.75,2.29,7.13,2.15,12.94,6.57,19.01,10.6,2.66,1.77,5.38,3.49,8.03,5.26,4.57,3.05,9.21,6.06,13.4,9.68,1.41,1.22,2.96,2.25,3.89,3.73ZM94.71,148.87c-2.47.06-4.96-.21-7.39.58-2.46.79-3.13,1.92-3.12,4.44,0,2.13,1.27,3.42,2.42,4.9,2.08,2.68,4.39,4.59,8.13,4.42,3.74-.17,9.89-3.99,11.34-7.52.85-2.07.25-3.71-1.63-4.98-3-2.03-6.38-1.82-9.74-1.85Z"/>
        <path class="cls-5" d="M57.47,197.16c.17-.42.46-.37.81-.23,2.61,1.04,5.16,2.29,7.85,3.03,2.96.81,5.94,1.55,8.9,2.36.85.23,1.69.46,2.52.75,2.28.77,4.49,1.88,7.01,1.65.31-.03.65.1.96.2,5.66,1.72,11.47,2.54,17.36,2.8.65.03,1.3.19,1.95.32,3.4.72,6.86.34,10.29.61,1.82.14,3.64.14,5.36.83.69.28,1.28.03,1.92-.06,3.11-.39,6.27-.46,9.31-1.13,2.79-.62,5.61-1.01,8.4-1.6,2-.43,3.98-.9,6.04-.51.94.18,1.71-.29,2.49-.67,1.75-.86,3.51-1.56,5.53-1.49.97.03,1.92-.28,2.81-.81,1.57-.94,3.25-1.6,5.09-1.88.97-.15,1.92-.44,2.81-.94,1.5-.83,3.18-1.23,4.74-1.85,3.6-1.44,7.3-2.68,10.58-4.92,2.22-1.51,4.27-3.28,6.79-4.38,1.6-.7,3-1.89,3.79-3.55.74-1.58,1.86-2.86,3.02-4.12,1.31-1.42,1.85-3.26,2.64-4.94.75-1.61,1.48-3.2,2.51-4.65.54-.76.95-1.63.78-2.64,1.68-.78,3.01-1.95,4.33-3.26,2.16-2.14,5.05-3.39,7.18-5.58,1.47-1.51,3.1-2.64,5.19-3.08,2.8-.6,5.59-1.26,8.39-1.84.52-.11,1.1.02,1.64.09,1.39.18,1.79.9,1.52,2.31-.37,1.91-1.27,3.62-1.8,5.46-1.15,4.05-3.55,7.38-5.77,10.87-1.51,2.37-3.16,4.6-4.85,6.82-1.87,2.44-4.3,4.28-6.67,6.14-3.62,2.84-7.53,5.31-11.37,7.83-4.48,2.94-9.23,5.55-14.36,7.31-2.03.7-3.96,1.65-5.97,2.39-3.9,1.43-7.8,2.88-11.75,4.17-3.59,1.17-7.23,2.19-10.96,2.94-5.15,1.05-10.39,1.33-15.55,2.18-4.89.81-9.82.54-14.71,1.03-4.51.45-9.03-.14-13.52-.63-6.14-.68-12.23-1.69-18.34-2.52-4.48-.61-8.91-1.79-13.16-3.56-3.18-1.33-6.61-2.1-9.73-3.54-4.33-1.99-8.63-4.14-12-7.68Z"/>
        <path class="cls-4" d="M162.31,124.89c2.56,1.59,3.55,4.24,5,6.65,1.52,2.53,2.12,5.26,2.24,7.96.13,2.84.68,5.67.48,8.49-.18,2.57-1,5.02-2.51,7.21-.96,1.4-2.55,1.91-3.74,2.96-5.04,4.44-14.68,2.24-17.94-2.4-1.36-1.93-2.47-4.04-2.25-6.57.02-.26-.03-.55-.13-.79-.97-2.21-.48-4.59-.8-6.85-.31-2.19.09-4.26.22-6.38.06-1.05.46-1.91.98-2.95-1.53.45-2.93,1.03-4.48.54-1.72-.55-2.92-1.51-3.3-3.33-.41-1.99.59-3.4,2.15-4.26,2.24-1.23,4.43-2.65,6.96-3.29,1.61-.41,3.09-1.12,4.6-1.8,4.3-1.93,8.64-3.69,13.37-4.35,1.7-.24,3.34-.97,5-1.52,2.47-.81,5.48.42,6.4,2.65.95,2.3-.46,5.03-3,5.67-2.87.72-5.76,1.35-8.64,2.03-.2.05-.37.21-.59.34ZM152.93,145.59c-.51,1.63.3,2.97.65,4.28.29,1.06,1.42,2.09,2.79,1.84,1.15-.21,2.9-.69,2.8-1.85-.22-2.59,1.01-4.89.77-7.52-.34-3.77-1.03-7.23-3.53-10.17-.4-.47-.65-1-1.39-.8-.74.2-1.33.54-1.44,1.39-.08.64-.03,1.27-.24,1.94-.99,3.07-1.4,6.2-.57,9.4.14.52.12,1.09.16,1.49Z"/>
        <path class="cls-4" d="M46.85,121.96c-1.76-.97-3.37-1.94-5.05-2.76-1.9-.94-3.01-2.39-2.85-4.01.19-2.01,1.85-3.81,3.91-4.17,1.66-.29,3.41-.29,4.78.71,1.69,1.25,3.67,1.97,5.32,3.24,1.24.96,2.8,1.22,4.17,1.93,4.22,2.22,8.01,5.14,12.32,7.22,1.99.96,2.89,3.56,2.14,5.36-.87,2.09-3.48,3.2-6.03,2.56-2.14-.54-1.93-.55-1.85,1.55.14,3.71.94,7.48.04,11.14-.94,3.83-2.12,7.72-5.04,10.55-2.45,2.38-5.46,3.58-9.1,3.2-3.69-.38-6.36-2.57-9.03-4.65-1.59-1.24-2.46-3.33-2.63-5.48-.09-1.16-.23-2.27-.54-3.4-.44-1.61.26-3.25.27-4.9.02-2.61.4-5.23,1.17-7.7,1.24-3.99,2.94-7.78,7.03-9.78.29-.14.55-.34.98-.6ZM54.17,139.45c.1-3.37-.5-5.92-1.87-8.29-.48-.83-1.67-1.22-2.06-.59-.43.7-.87,1.42-1.1,2.2-1.1,3.7-1.79,7.5-1.89,11.34-.03,1.28-.12,2.94,1.24,3.87.83.57,1.77,1.16,2.72,1.29.58.08.81-1.03,1.18-1.61,1.72-2.72,1.34-5.88,1.78-8.21Z"/>
        <path class="cls-4" d="M212.34,138.42c-3.83.61-8.03.27-12.17.98-1.46.25-3.04-.38-4.28-1.32-1.91-1.45-1.78-3.93.35-5.01,1.86-.94,3.76-1.63,6.02-1.81,2.38-.19,4.81-.44,7.21-.54,2.93-.12,5.89-.02,8.77.72,1.43.37,2.32,1.34,2.45,2.78.12,1.42-.77,2.37-1.99,2.96-1.9.92-3.92,1.32-6.33,1.24Z"/>
        <path class="cls-1" d="M94.71,148.87c3.36.03,6.74-.18,9.74,1.85,1.87,1.27,2.48,2.9,1.63,4.98-1.45,3.53-7.6,7.35-11.34,7.52-3.73.17-6.05-1.74-8.13-4.42-1.15-1.48-2.41-2.76-2.42-4.9,0-2.52.66-3.65,3.12-4.44,2.43-.78,4.92-.52,7.39-.58Z"/>
        <path class="cls-3" d="M152.93,145.59c-.04-.41-.02-.97-.16-1.49-.83-3.2-.42-6.33.57-9.4.21-.66.16-1.29.24-1.94.11-.85.7-1.19,1.44-1.39.75-.2.99.33,1.39.8,2.51,2.94,3.19,6.41,3.53,10.17.24,2.62-.99,4.93-.77,7.52.1,1.16-1.65,1.64-2.8,1.85-1.37.25-2.51-.78-2.79-1.84-.35-1.31-1.16-2.65-.65-4.28Z"/>
        <path class="cls-3" d="M54.17,139.45c-.44,2.33-.06,5.49-1.78,8.21-.37.59-.59,1.69-1.18,1.61-.95-.13-1.89-.72-2.72-1.29-1.36-.93-1.27-2.59-1.24-3.87.1-3.85.79-7.64,1.89-11.34.23-.78.67-1.5,1.1-2.2.39-.63,1.58-.24,2.06.59,1.37,2.37,1.98,4.92,1.87,8.29Z"/>
      </g>
      <g>
        <path class="cls-7" d="M312,59.5c0-2.03,1.56-3.9,3.59-3.9l24.96-1.4c8.11-2.65,17.32-4.06,26.52-4.06,26.37,0,53.98,11.39,62.88,38.69,3.43,10.45,4.99,20.13,4.99,28.86,0,44.16-38.69,68.34-83.01,68.34-7.18,0-14.51-.62-21.84-1.87-1.25-.31-2.5-.47-3.59-.62-5.15-1.25-8.11-3.74-8.43-9.67l-6.08-114.37ZM356,149.37c1.25.16,2.5.16,3.74.16,18.1,0,33.08-12.95,33.08-32.77,0-2.65-.16-33.55-29.02-33.55-3.74,0-7.65.62-11.23,1.56l3.43,64.59Z"/>
        <path class="cls-7" d="M501.88,185.41c-35.42,0-53.2-24.18-53.2-47.9,0-22.31,15.76-45.72,51.33-45.72,38.69,0,40.41,34.48,40.41,39.63,0,7.18-2.96,13.11-12.17,16.23-7.33,2.5-18.88,4.21-26.99,4.52-2.5,0-3.28-1.09-3.9-2.96-1.87-5.15-4.84-15.29-4.84-15.91,0-1.72,1.25-2.5,3.28-2.96,8.11-1.87,9.21-2.18,9.21-4.37,0-1.4-2.96-6.4-9.52-6.4-7.49,0-13.73,6.55-13.73,16.23,0,11.08,8.11,23.56,27.62,23.56,1.09,0,2.34,0,3.43-.16h.31c2.18,0,4.84,1.4,4.84,4.06,0,1.56-4.06,12.17-6.4,17.47-1.25,2.5-3.28,4.68-7.8,4.68h-1.87Z"/>
        <path class="cls-7" d="M627.17,120.97c-.62,1.87-2.34,3.43-4.21,3.43-.62,0-1.4-.31-2.03-.78-2.81-2.34-8.27-4.06-13.73-4.06-4.06,0-17.63.94-17.63,17.94,0,10.45,7.49,17.32,17.63,17.32,6.71,0,14.51-2.96,22-9.83.94-.94,2.34-1.72,3.74-1.72,1.09,0,2.34.62,3.43,2.5,2.81,5.3,4.68,8.11,7.18,13.26.47.94.78,2.03.78,3.12,0,1.87-.78,3.59-2.65,5.46-12.64,12.01-27.62,17.32-41.66,17.32-25.9,0-48.84-18.1-48.84-45.56,0-34.95,27.93-49.15,53.67-49.15,17.32,0,29.8,6.87,29.8,10.77,0,.31,0,.78-.16,1.09l-7.33,18.88Z"/>
        <path class="cls-7" d="M663.84,183.54c-1.87,0-3.43-1.25-3.43-3.12l-4.37-81.13c0-1.87,1.4-3.43,3.12-3.43l18.1-.94c8.43-2.65,16.54-3.9,24.34-3.9,5.3,0,10.45.62,15.29,1.72,2.34.62,3.28,1.87,3.28,3.74,0,.62-.16,1.25-.31,2.03l-4.52,22c-.47,2.18-2.03,3.28-3.9,3.28-.47,0-1.09-.16-1.72-.31-2.5-.78-5.15-1.25-7.8-1.25-2.18,0-4.37.31-6.86.94l2.96,55.23v.31c0,1.72-1.4,3.12-3.12,3.12l-31.05,1.72Z"/>
        <path class="cls-7" d="M733.58,217.87c-2.34-.94-3.43-2.18-3.43-3.74,0-1.09.47-2.18,1.25-3.28l24.5-36.35c-.47-.47-.78-1.25-1.25-2.18l-29.18-66c-.47-1.09-.78-2.03-.78-2.81,0-2.18,1.87-3.59,4.21-4.21l24.81-7.33c.62-.16,1.25-.31,1.87-.31,2.81,0,4.84,2.03,5.93,4.68l18.57,41.97c9.21-13.89,18.1-27.77,25.74-39.79.94-1.56,2.03-2.5,3.74-2.5.94,0,2.34.31,3.9,1.25l23.25,12.01c1.87.94,2.81,2.03,2.81,3.43,0,2.34-11.86,34.33-75.67,111.87-1.56,1.72-2.96,2.65-4.84,2.65-.78,0-1.72-.16-2.81-.62l-22.62-8.74Z"/>
        <path class="cls-7" d="M853.26,223.17c-1.56,0-2.96-1.4-2.96-3.12v-.31l6.24-123.26c.16-1.72,1.56-3.12,3.12-3.12h.31l26.06,1.4c6.71-2.5,13.57-3.74,20.13-3.74,27.46,0,52.11,19.97,52.11,48.37s-20.13,46.34-49.62,46.34c-6.55,0-12.95-.94-18.72-2.81l-2.03,38.85c-.16,1.87-1.56,3.12-3.43,3.12l-31.21-1.72ZM891.33,153.89c3.43,1.72,7.96,2.96,12.33,2.96,1.25,0,16.23,0,16.23-17.16,0-10.77-8.11-18.26-19.04-18.26-2.5,0-5.15.47-7.8,1.25l-1.72,31.21Z"/>
        <path class="cls-7" d="M1023.63,179.64c-1.25,2.96-2.65,4.52-4.99,4.52-.47,0-.94,0-1.4-.16-25.12-4.99-33.86-18.72-34.64-58.2l-11.7-.62c-1.72-.16-3.12-1.72-3.12-3.43l1.87-25.9c.16-1.72,1.56-3.12,3.43-3.12l9.99.62c.31-5.93.62-12.33,1.09-19.04.16-1.87.47-4.84,4.52-4.84h.62l29.49,1.4c2.65.16,3.9,1.72,3.9,4.37-.31,6.55-.78,13.42-1.25,19.97l10.77.62c1.72,0,3.12,1.56,3.12,3.43l-1.87,25.9c-.16,1.56-1.4,2.96-3.12,2.96h-.31l-10.3-.47c0,14.2,1.87,24.96,8.74,27.93,1.72.78,3.59,1.4,3.59,3.12,0,.31-.16.78-.31,1.25l-8.11,19.66Z"/>
      </g>
    </g>
    <g>
      <path class="cls-7" d="M1113.1,82.65c-4.09,2.08-8.2,3.51-12.16,4.17-12.51,2.1-23.41-3.29-27.03-19.9-1.25-5.81-3.31-16.94-4.36-22.68-.62-3.69.52-4.62,1.58-4.89.06-.19,13.85-3.53,15.38-3.78,1.8-.3,2.67.48,2.94,1.54,1.55,5.94,2.55,10.77,4.89,21.39,1.66,7.68,4.81,9.93,8.59,9.29,1.8-.3,3.85-1.29,5.92-2.75l-3.58-31.24c-.09-1.1.69-1.97,1.68-2.13l18.08-2.02c1.08-.18,1.95.6,2.13,1.68l5.43,47.22c.09,1.1-.69,1.97-1.68,2.13l-17.81,1.97Z"/>
      <path class="cls-7" d="M1149.52,26.74c-7.38,1.24-14.32-3.7-15.54-11s3.7-14.32,11.09-15.56,14.23,3.72,15.47,11.1-3.72,14.23-11.01,15.45ZM1152.25,77.74l-.18.03c-.99.17-1.85-.52-2.1-1.5l-9.61-43.46c-.18-1.08.4-2.01,1.47-2.28l17.85-3.92.18-.03c.9-.15,1.85.52,2,1.42l9.62,43.55.03.18c.15.9-.52,1.85-1.41,2.09l-17.85,3.92Z"/>
    </g>
  </g>
</svg>